<svg xmlns="http://www.w3.org/2000/svg" width="17.173" height="17.392" viewBox="0 0 17.173 17.392">
  <g id="Group_4863" data-name="Group 4863" transform="translate(0.1 0.358)">
    <path id="Path_12943" data-name="Path 12943" d="M8.687-.16l7.038,5.993a.346.346,0,0,1-.2.6H14.077v6.395H14.8a.36.36,0,0,1,.362.362v1.367h1.448a.355.355,0,0,1,.362.322v1.729a.355.355,0,0,1-.362.322H.322A.355.355,0,0,1,0,16.572V14.883a.328.328,0,0,1,.362-.322H1.81V13.193a.36.36,0,0,1,.362-.362H2.9V6.437H1.448a.34.34,0,0,1-.2-.6l7-5.993A.315.315,0,0,1,8.687-.16Zm5.792,14.72V13.515H2.494v1.046Zm1.81.684H.684V16.25H16.289Zm-2.9-2.413V6.437H12.388v6.395Zm-1.689,0V6.437H9.693v6.395Zm-2.695,0V6.437H7.963v6.395Zm-1.729,0V6.437H5.269v6.395Zm-2.695,0V6.437H3.58v6.395ZM14.6,5.753,8.486.564,2.373,5.753Z" stroke="#000" stroke-width="0.2"/>
  </g>
</svg>
