<svg id="Group_4856" data-name="Group 4856" xmlns="http://www.w3.org/2000/svg" width="15.094" height="12.578" viewBox="0 0 15.094 12.578">
  <path id="Path_12960" data-name="Path 12960" d="M9.8,979.94a1.8,1.8,0,0,1-1.8-1.8v-7.188a1.8,1.8,0,0,1,1.8-1.8h2.151l.584-1.454a.539.539,0,0,1,.5-.342h5.031a.539.539,0,0,1,.5.342l.584,1.454H21.3a1.8,1.8,0,0,1,1.8,1.8v7.188a1.8,1.8,0,0,1-1.8,1.8H9.8Zm0-1.078H21.3a.706.706,0,0,0,.719-.719v-7.188a.706.706,0,0,0-.719-.719H18.781a.539.539,0,0,1-.5-.337l-.584-1.46H13.4l-.584,1.46a.539.539,0,0,1-.5.337H9.8a.706.706,0,0,0-.719.719v7.188a.706.706,0,0,0,.719.719Zm5.75-.9a3.414,3.414,0,1,1,3.414-3.414A3.422,3.422,0,0,1,15.547,977.964Zm0-1.078a2.336,2.336,0,1,0-2.336-2.336A2.328,2.328,0,0,0,15.547,976.886Z" transform="translate(-8 -967.362)"/>
</svg>
