<svg xmlns="http://www.w3.org/2000/svg" width="32.637" height="35" viewBox="0 0 32.637 35">
  <g id="noun_Award_3774830" transform="translate(-2 -0.973)">
    <path id="Path_12934" data-name="Path 12934" d="M21.411,10.356h-1.7l-.529-1.632h0a2.343,2.343,0,0,0-4.429,0l-.529,1.632h-1.7a2.331,2.331,0,0,0-1.371,4.217l1.379,1L12,17.195a2.331,2.331,0,0,0,3.588,2.6l1.379-1,1.379,1a2.331,2.331,0,0,0,3.588-2.607L21.4,15.57l1.379-1a2.342,2.342,0,0,0-1.371-4.213Zm-1.38,3.334a2.331,2.331,0,0,0-.846,2.605l.527,1.623c-.73-.488-1.8-1.537-2.749-1.45-.939-.09-2.025.964-2.749,1.449l.527-1.621a2.331,2.331,0,0,0-.847-2.606l-1.379-1h1.7a2.331,2.331,0,0,0,2.215-1.611l.529-1.641c0,.006.53,1.632.533,1.632a2.331,2.331,0,0,0,2.215,1.611h1.7Z" transform="translate(1.355 1.022)" fill="#c7222a"/>
    <path id="Path_12935" data-name="Path 12935" d="M34.395,32.558a1.166,1.166,0,0,0,.079-1.305l-4.81-8.11a13.987,13.987,0,1,0-22.69,0l-4.81,8.11a1.166,1.166,0,0,0,1.323,1.716l4.95-1.417L10.174,35.3a1.166,1.166,0,0,0,1,.675h.059a1.166,1.166,0,0,0,1-.571l3.917-6.608a14,14,0,0,0,2.168.185,14,14,0,0,0,2.168-.185L24.4,35.4a1.166,1.166,0,0,0,1,.571h.059a1.166,1.166,0,0,0,1-.674L28.2,31.552l4.95,1.417A1.166,1.166,0,0,0,34.395,32.558Zm-23.037-.251-1.224-2.641a1.174,1.174,0,0,0-1.373-.631l-3.09.885,2.914-4.911a14.014,14.014,0,0,0,5.209,3.2Zm-4.7-17.315A11.656,11.656,0,1,1,18.319,26.648,11.656,11.656,0,0,1,6.662,14.992ZM27.877,29.035a1.173,1.173,0,0,0-1.379.631l-1.224,2.641-2.428-4.1a14.014,14.014,0,0,0,5.209-3.2l2.914,4.911Z" transform="translate(0 0)" fill="#c7222a"/>
  </g>
</svg>
