<svg xmlns="http://www.w3.org/2000/svg" width="44" height="44" viewBox="0 0 44 44"><defs><style>.a{fill:#d55145;}.b{fill:#cc4337;}.c{fill:#fedb41;}.d{fill:#fe9923;}.e{fill:#fff;}.f{fill:#f4f1f1;}.g{fill:#fea832;}</style></defs><g transform="translate(0.073 0.073)"><g transform="translate(0.232 0.232)"><circle class="a" cx="22" cy="22" r="22" transform="translate(-0.306 -0.306)"/></g><path class="b" d="M90.543,68.642a22.087,22.087,0,0,0-.221-3.108L79.033,54.245l-2.542,1.95-5.016-5.08L51.114,71.475l5.252,5.252-2.121,2.307L65.534,90.322a21.908,21.908,0,0,0,25.009-21.68Z" transform="translate(-46.689 -46.689)"/><g transform="translate(4.425 4.425)"><path class="c" d="M86.169,71.475V65.809l-4.43-1.254a13.623,13.623,0,0,0-.948-2.283l2.247-4.021-4.006-4.006-4.021,2.247a13.63,13.63,0,0,0-2.283-.948l-1.254-4.43H65.808l-1.254,4.43a13.624,13.624,0,0,0-2.283.948L58.25,54.245l-4.006,4.006,2.247,4.021a13.631,13.631,0,0,0-.948,2.283l-4.43,1.254v5.666l4.43,1.254a13.631,13.631,0,0,0,.948,2.283l-2.247,4.021,4.006,4.006,4.021-2.247a13.631,13.631,0,0,0,2.283.948l1.254,4.43h5.666l1.254-4.43a13.631,13.631,0,0,0,2.283-.948l4.021,2.247,4.006-4.006-2.247-4.021a13.63,13.63,0,0,0,.948-2.283Z" transform="translate(-51.113 -51.114)"/><path class="d" d="M269.1,72.725a13.626,13.626,0,0,1-.948,2.283l2.247,4.021-4.006,4.006-4.021-2.247a13.626,13.626,0,0,1-2.283.948l-1.254,4.43H256V51.11h2.833l1.254,4.43a13.625,13.625,0,0,1,2.283.948l4.021-2.247,4.006,4.006-2.247,4.021a13.626,13.626,0,0,1,.948,2.283l4.43,1.254v5.665Z" transform="translate(-238.472 -51.11)"/><g transform="translate(4.247 4.252)"><g transform="translate(0 0)"><circle class="e" cx="9.389" cy="9.389" r="9.389" transform="translate(0 13.276) rotate(-45)"/></g></g><g transform="translate(17.528 8.139)"><path class="f" d="M265.389,155.639A9.389,9.389,0,0,1,256,165.028V146.25A9.389,9.389,0,0,1,265.389,155.639Z" transform="translate(-256 -146.25)"/></g><g transform="translate(14.453 11.579)"><path class="g" d="M224.243,191.751c-.157-.056-.318-.114-.479-.174v-2.653a1.707,1.707,0,0,1,.622.313l.468.431.87-.943-.472-.435a3.08,3.08,0,0,0-1.488-.678v-1.159h-1.283v1.206c-.074.017-.148.036-.224.059a2.438,2.438,0,0,0-1.671,1.912,2.153,2.153,0,0,0,.707,2.121,5.628,5.628,0,0,0,1.188.685v3.408a2.332,2.332,0,0,1-1.19-.465l-.537-.351-.7,1.074.537.351a3.561,3.561,0,0,0,1.892.678v1.221h1.283v-1.274a2.924,2.924,0,0,0,2.248-2.387,2.57,2.57,0,0,0-1.769-2.941Zm-2.158-1.008a.9.9,0,0,1-.238-.874,1.2,1.2,0,0,1,.634-.865v2a3.237,3.237,0,0,1-.4-.26Zm2.661,3.736a1.669,1.669,0,0,1-.982,1.257v-2.794l.051.018A1.31,1.31,0,0,1,224.746,194.48Z" transform="translate(-220.052 -186.454)"/></g><g transform="translate(17.528 11.578)"><path class="d" d="M257.116,191.747c-.157-.056-.318-.114-.479-.174v-2.653a1.684,1.684,0,0,1,.623.313l.468.431.87-.944-.472-.435a3.076,3.076,0,0,0-1.489-.678V186.45H256v11.9h.636v-1.275a2.925,2.925,0,0,0,2.248-2.387A2.571,2.571,0,0,0,257.116,191.747Zm.5,2.729a1.668,1.668,0,0,1-.982,1.257v-2.794l.051.019A1.309,1.309,0,0,1,257.619,194.476Z" transform="translate(-256 -186.45)"/></g></g></g></svg>