<svg xmlns="http://www.w3.org/2000/svg" width="18.535" height="18.535" viewBox="0 0 18.535 18.535">
  <path id="Path_12956" data-name="Path 12956" d="M8.931,16.029l4.285-2.474V8.607a.8.8,0,1,1,1.6,0v5.411h0a.8.8,0,0,1-.4.694l-4.683,2.7,0,0a.8.8,0,1,1-.8-1.389ZM5.8,13.216a.8.8,0,1,0,.8.8A.8.8,0,0,0,5.8,13.216Zm1.5-4A.8.8,0,1,0,7.6,10.31.8.8,0,0,0,7.3,9.216ZM6.208,18.527l.007.01h0A9.018,9.018,0,1,0,14.018,5a.8.8,0,1,0,0,1.6h0a7.415,7.415,0,1,1-6.434,11.1h0a.8.8,0,0,0-1.375.82ZM10.6,6.5A.8.8,0,1,0,10.311,7.6.8.8,0,0,0,10.6,6.5Z" transform="translate(-4.75 -4.75)" fill="#f7a501" stroke="#f7a501" stroke-width="0.5"/>
</svg>
