<svg xmlns="http://www.w3.org/2000/svg" width="28.535" height="28.535" viewBox="0 0 28.535 28.535">
  <path id="Path_3" data-name="Path 3" d="M14.267,28.535A14.267,14.267,0,1,1,28.535,14.267,14.268,14.268,0,0,1,14.267,28.535Zm0-26.157a11.89,11.89,0,1,0,11.89,11.89,11.889,11.889,0,0,0-11.89-11.89ZM19.8,19.8a1.189,1.189,0,0,1-1.681,0l-3.856-3.856L10.412,19.8A1.189,1.189,0,1,1,8.73,18.123l3.856-3.856L8.73,10.412A1.189,1.189,0,1,1,10.412,8.73l3.856,3.856L18.123,8.73A1.189,1.189,0,1,1,19.8,10.412l-3.856,3.856L19.8,18.123A1.189,1.189,0,0,1,19.8,19.8Z"/>
</svg>
