<svg xmlns="http://www.w3.org/2000/svg" width="40.859" height="51.565" viewBox="0 0 40.859 51.565"><defs><style>.a{fill:#344d5b;}.b{fill:#293b44;}.c{fill:#64798a;}.d{fill:#fea832;}.e{fill:#fc3;}</style></defs><g transform="translate(-18.54 -8.985)"><path class="a" d="M48.7,97.814h7.149v.614H48.7Z" transform="translate(-13.259 -39.056)"/><path class="b" d="M50.108,94.613v2.811a.776.776,0,0,0,.776.776H54.9a.776.776,0,0,0,.776-.776V94.613Z" transform="translate(-13.88 -37.649)"/><g transform="translate(18.54 8.985)"><path class="c" d="M68.482,12.12a.511.511,0,0,0-.674.259l-1.1,2.471a.511.511,0,0,0,.933.415l1.1-2.471a.511.511,0,0,0-.259-.674Z" transform="translate(-39.699 -10.344)"/><path class="c" d="M79.965,20.981a.511.511,0,0,0-.721-.038l-2.01,1.81a.511.511,0,0,0,.683.759l2.01-1.81A.511.511,0,0,0,79.965,20.981Z" transform="translate(-44.272 -14.185)"/><path class="c" d="M87.062,34.037a.511.511,0,0,0-.643-.328l-2.573.836a.511.511,0,0,0,.316.971l2.573-.836A.511.511,0,0,0,87.062,34.037Z" transform="translate(-47.098 -19.845)"/><path class="c" d="M88.545,48.809a.511.511,0,0,0-.454-.561l-2.69-.283a.511.511,0,0,0-.107,1.016l2.69.283a.511.511,0,0,0,.561-.454Z" transform="translate(-47.689 -26.123)"/><path class="c" d="M84.159,62.307a.511.511,0,0,0-.187-.7L81.63,60.257a.511.511,0,1,0-.511.884l2.343,1.353a.511.511,0,0,0,.7-.187Z" transform="translate(-45.942 -31.499)"/><path class="c" d="M23.2,62.307a.511.511,0,0,0,.7.187l2.343-1.353a.511.511,0,1,0-.511-.884L23.388,61.61a.511.511,0,0,0-.187.7Z" transform="translate(-20.559 -31.499)"/><path class="c" d="M18.542,48.809a.511.511,0,0,0,.561.454l2.69-.283a.511.511,0,0,0-.107-1.016L19,48.248a.511.511,0,0,0-.454.561Z" transform="translate(-18.54 -26.123)"/><path class="c" d="M20.118,34.037a.511.511,0,0,0,.328.643l2.573.836a.511.511,0,0,0,.316-.971l-2.573-.836A.511.511,0,0,0,20.118,34.037Z" transform="translate(-19.223 -19.845)"/><path class="c" d="M27.656,20.981a.511.511,0,0,0,.038.721l2.01,1.81a.511.511,0,1,0,.683-.759l-2.01-1.81A.511.511,0,0,0,27.656,20.981Z" transform="translate(-22.49 -14.185)"/><path class="c" d="M39.853,12.12a.511.511,0,0,0-.259.674l1.1,2.471a.511.511,0,1,0,.933-.415l-1.1-2.471a.511.511,0,0,0-.674-.259Z" transform="translate(-27.777 -10.344)"/><path class="c" d="M54.6,8.985a.511.511,0,0,0-.511.511V12.2a.511.511,0,0,0,1.021,0V9.5A.511.511,0,0,0,54.6,8.985Z" transform="translate(-34.17 -8.985)"/></g><path class="a" d="M47.158,86.145v4.481a1.236,1.236,0,0,0,1.236,1.236h6.4a1.236,1.236,0,0,0,1.236-1.236V86.145Z" transform="translate(-12.583 -33.926)"/><path class="d" d="M58.308,32.03A15.628,15.628,0,1,0,31.4,44.129a19.719,19.719,0,0,1,5.3,11,1.628,1.628,0,0,0,1.61,1.428h8.872a1.629,1.629,0,0,0,1.612-1.434A18.821,18.821,0,0,1,53.911,44.3a15.587,15.587,0,0,0,4.4-12.271Z" transform="translate(-3.768 -3.854)"/><circle class="e" cx="10.989" cy="10.989" r="10.989" transform="translate(27.979 18.443)"/><path class="d" d="M51.61,47.021V45.6a5.257,5.257,0,0,1-1.736-.479,3.026,3.026,0,0,1-1.155-1.111,3.977,3.977,0,0,1-.566-1.875l1.432-.269a3.612,3.612,0,0,0,.585,1.685,2.077,2.077,0,0,0,1.44.846V39.862a5.948,5.948,0,0,1-1.8-.68,2.63,2.63,0,0,1-1.048-1.052,3.351,3.351,0,0,1,.708-3.987,3.742,3.742,0,0,1,2.136-.775v-.68h.839v.68a3.516,3.516,0,0,1,1.97.728,3.235,3.235,0,0,1,1.123,2.128l-1.471.222a2.436,2.436,0,0,0-.526-1.285,1.94,1.94,0,0,0-1.1-.589v4.106a11.292,11.292,0,0,1,1.424.419,3.517,3.517,0,0,1,1.084.712,2.864,2.864,0,0,1,.645,1,3.665,3.665,0,0,1-.716,3.718,3.453,3.453,0,0,1-2.436,1.06v1.44H51.61Zm0-12.467a2.111,2.111,0,0,0-1.309.664,1.977,1.977,0,0,0-.071,2.492,2.807,2.807,0,0,0,1.38.783Zm.839,9.841a2.111,2.111,0,0,0,1.372-.72,2.231,2.231,0,0,0,.542-1.527,1.911,1.911,0,0,0-.384-1.246,3.311,3.311,0,0,0-1.531-.842Z" transform="translate(-13.02 -10.421)"/></g></svg>