<svg id="Group_4855" data-name="Group 4855" xmlns="http://www.w3.org/2000/svg" width="13.993" height="15.266" viewBox="0 0 13.993 15.266">
  <path id="Path_12956" data-name="Path 12956" d="M6,7.089A1.272,1.272,0,0,0,7.272,8.361v6.361a2.544,2.544,0,0,0,2.544,2.544h6.361a2.544,2.544,0,0,0,2.544-2.544V8.361a1.272,1.272,0,0,0,1.272-1.272V5.816a1.272,1.272,0,0,0-1.272-1.272H16.177V3.272A1.272,1.272,0,0,0,14.9,2H11.089A1.272,1.272,0,0,0,9.816,3.272V4.544H7.272A1.272,1.272,0,0,0,6,5.816Zm11.449,7.633a1.272,1.272,0,0,1-1.272,1.272H9.816a1.272,1.272,0,0,1-1.272-1.272V8.361h8.9ZM11.089,3.272H14.9V4.544H11.089ZM7.272,5.816H18.721V7.089H7.272Z" transform="translate(-6 -2)"/>
  <path id="Path_12957" data-name="Path 12957" d="M30.636,55.089a.636.636,0,0,0,.636-.636V50.636a.636.636,0,0,0-1.272,0v3.816A.636.636,0,0,0,30.636,55.089Z" transform="translate(-26.184 -42.367)"/>
  <path id="Path_12958" data-name="Path 12958" d="M46.636,55.089a.636.636,0,0,0,.636-.636V50.636a.636.636,0,0,0-1.272,0v3.816A.636.636,0,0,0,46.636,55.089Z" transform="translate(-39.639 -42.367)"/>
  <path id="Path_12959" data-name="Path 12959" d="M62.636,55.089a.636.636,0,0,0,.636-.636V50.636a.636.636,0,0,0-1.272,0v3.816A.636.636,0,0,0,62.636,55.089Z" transform="translate(-53.095 -42.367)"/>
</svg>
