<svg xmlns="http://www.w3.org/2000/svg" width="30" height="30" viewBox="0 0 30 30">
  <g id="Group_4707" data-name="Group 4707" transform="translate(-1238 -266.5)">
    <g id="Rectangle_121" data-name="Rectangle 121" transform="translate(1239 267.5)" fill="none" stroke="#c7222a" stroke-width="1">
      <rect width="28" height="28" rx="3" stroke="none"/>
      <rect x="-0.5" y="-0.5" width="29" height="29" rx="3.5" fill="none"/>
    </g>
    <path id="xls-file" d="M54.241,0H47.49A1.791,1.791,0,0,0,45.7,1.789V8.4h-.175a.721.721,0,0,0-.721.721V13.5a.721.721,0,0,0,.721.721H45.7v.8a1.791,1.791,0,0,0,1.789,1.789H56.7a1.791,1.791,0,0,0,1.788-1.789V4.234Zm-7.6,9.873h.787l.265.553c.09.184.158.333.23.5h.009c.072-.193.131-.329.207-.5l.256-.553h.783l-.855,1.479.9,1.552h-.792l-.274-.549c-.112-.212-.184-.369-.27-.544h-.009c-.063.176-.14.333-.234.544l-.252.549h-.783l.877-1.534ZM56.7,15.711H47.49a.694.694,0,0,1-.693-.693v-.8h8.586A.721.721,0,0,0,56.1,13.5V9.124a.721.721,0,0,0-.721-.721H46.8V1.789A.694.694,0,0,1,47.49,1.1l6.341-.007V3.434a1.241,1.241,0,0,0,1.24,1.241l2.3-.007.026,10.351A.693.693,0,0,1,56.7,15.711Zm-5.214-3.383V12.9H49.593V9.873h.688v2.456Zm1.162-.7c-.5-.175-.832-.454-.832-.895,0-.518.432-.913,1.147-.913a1.862,1.862,0,0,1,.774.153l-.153.553a1.444,1.444,0,0,0-.634-.144c-.3,0-.441.135-.441.292,0,.193.171.279.562.427.535.2.787.477.787.9,0,.508-.391.94-1.223.94a1.983,1.983,0,0,1-.859-.185l.14-.566a1.748,1.748,0,0,0,.76.188c.315,0,.481-.13.481-.328S53.013,11.762,52.649,11.632Z" transform="translate(1201.615 272.666)" fill="#c7222a"/>
  </g>
</svg>
