<svg xmlns="http://www.w3.org/2000/svg" width="30" height="30" viewBox="0 0 30 30">
  <g id="Group_4708" data-name="Group 4708" transform="translate(-1279 -266.5)">
    <g id="Rectangle_3802" data-name="Rectangle 3802" transform="translate(1280 267.5)" fill="none" stroke="#c7222a" stroke-width="1">
      <rect width="28" height="28" rx="3" stroke="none"/>
      <rect x="-0.5" y="-0.5" width="29" height="29" rx="3.5" fill="none"/>
    </g>
    <g id="pdf-file" transform="translate(1242.801 272.893)">
      <path id="Path_12849" data-name="Path 12849" d="M119.352,297.857c0-.279-.194-.445-.535-.445a1.184,1.184,0,0,0-.283.027v.9a1.071,1.071,0,0,0,.23.018C119.127,298.352,119.352,298.168,119.352,297.857Z" transform="translate(-71.158 -287.047)" fill="#c7222a"/>
      <path id="Path_12850" data-name="Path 12850" d="M194.114,297.681a1.413,1.413,0,0,0-.31.027v1.983a1.24,1.24,0,0,0,.238.014.94.94,0,0,0,1.025-1.061A.87.87,0,0,0,194.114,297.681Z" transform="translate(-143.805 -287.307)" fill="#c7222a"/>
      <path id="Path_12851" data-name="Path 12851" d="M54.238,0H47.49A1.791,1.791,0,0,0,45.7,1.788V8.4h-.175a.721.721,0,0,0-.721.721v4.37a.72.72,0,0,0,.721.721H45.7v.8A1.79,1.79,0,0,0,47.49,16.8H56.7a1.79,1.79,0,0,0,1.788-1.788V4.233ZM46.7,9.911a5.649,5.649,0,0,1,.926-.063,1.453,1.453,0,0,1,.926.243.886.886,0,0,1,.324.7.969.969,0,0,1-.279.72,1.406,1.406,0,0,1-.985.319,1.775,1.775,0,0,1-.234-.013V12.9H46.7Zm10,5.8H47.49a.694.694,0,0,1-.693-.693v-.8h8.584a.72.72,0,0,0,.721-.721V9.122a.721.721,0,0,0-.721-.721H46.8V1.788A.694.694,0,0,1,47.49,1.1l6.339-.007V3.433a1.241,1.241,0,0,0,1.24,1.24l2.3-.007.026,10.348A.693.693,0,0,1,56.7,15.708Zm-7.387-2.82V9.911a6.173,6.173,0,0,1,.926-.063,1.952,1.952,0,0,1,1.241.323,1.341,1.341,0,0,1,.512,1.142,1.536,1.536,0,0,1-.5,1.228,2.176,2.176,0,0,1-1.4.391A5.933,5.933,0,0,1,49.311,12.888Zm4.908-1.763v.557H53.13V12.9h-.688V9.871H54.3v.562H53.13v.693Z" fill="#c7222a"/>
    </g>
  </g>
</svg>
