<svg xmlns="http://www.w3.org/2000/svg" width="61.079" height="62.928" viewBox="0 0 61.079 62.928"><defs><style>.a{fill:#fedb41;}.b{fill:#fc3;}.c{fill:#fea832;}.d{fill:#fe9923;}.e{fill:#d55145;}</style></defs><g transform="translate(-126.456 -675.869)"><g transform="translate(139.307 691.307)"><path class="a" d="M14.751,0A14.744,14.744,0,0,0,0,14.636,14.843,14.843,0,0,0,14.751,29.387,14.693,14.693,0,0,0,14.751,0Z"/><path class="b" d="M271.636,14.636A14.744,14.744,0,0,1,257,29.387V0A14.646,14.646,0,0,1,271.636,14.636Z" transform="translate(-242.249)"/><path class="c" d="M71.307,60A11.25,11.25,0,1,0,82.5,71.192,11.313,11.313,0,0,0,71.307,60Z" transform="translate(-56.556 -56.556)"/><path class="d" d="M268.192,71.192A11.313,11.313,0,0,1,257,82.5V60A11.214,11.214,0,0,1,268.192,71.192Z" transform="translate(-242.249 -56.556)"/><path class="a" d="M186.141,126.888h-.861v-3.444h.861a.853.853,0,0,1,.861.861.861.861,0,0,0,1.722,0,2.579,2.579,0,0,0-2.583-2.583h-.861v-.861a.861.861,0,1,0-1.722,0v.861h-.976A2.579,2.579,0,0,0,180,124.3v1.722a2.579,2.579,0,0,0,2.583,2.583h.976v3.559h-.976a.853.853,0,0,1-.861-.861.861.861,0,0,0-1.722,0,2.579,2.579,0,0,0,2.583,2.583h.976v.861a.861.861,0,0,0,1.722,0v-.861h.861a2.579,2.579,0,0,0,2.583-2.583V129.47A2.579,2.579,0,0,0,186.141,126.888Zm-2.583,0h-.976a.852.852,0,0,1-.861-.861V124.3a.853.853,0,0,1,.861-.861h.976ZM187,131.307a.852.852,0,0,1-.861.861h-.861v-3.559h.861a.853.853,0,0,1,.861.861Z" transform="translate(-169.669 -113.112)"/><path class="b" d="M258.722,126.888h-.861v-3.444h.861a.853.853,0,0,1,.861.861.861.861,0,0,0,1.722,0,2.579,2.579,0,0,0-2.583-2.583h-.861v-.861A.83.83,0,0,0,257,120v15.612a.83.83,0,0,0,.861-.861v-.861h.861a2.579,2.579,0,0,0,2.583-2.583V129.47A2.579,2.579,0,0,0,258.722,126.888Zm.861,4.419a.853.853,0,0,1-.861.861h-.861v-3.559h.861a.853.853,0,0,1,.861.861Z" transform="translate(-242.249 -113.112)"/></g><g transform="translate(163.254 738.797) rotate(-150)"><path class="e" d="M24.28,48.561A24.281,24.281,0,0,1,7.112,7.11a24.28,24.28,0,0,1,34.336,0,1.011,1.011,0,0,1-1.43,1.43A22.256,22.256,0,1,0,8.543,40.018a22.257,22.257,0,0,0,31.478,0,1.011,1.011,0,0,1,1.43,1.43,24.124,24.124,0,0,1-17.17,7.112Zm0,0" transform="translate(0 0)"/><path class="e" d="M350.437,10.117h-8.093a1.012,1.012,0,0,1,0-2.024h7.082V1.012a1.012,1.012,0,1,1,2.023,0V9.105a1.012,1.012,0,0,1-1.012,1.012Zm0,0" transform="translate(-308.958)"/></g></g></svg>