<svg xmlns="http://www.w3.org/2000/svg" width="26.192" height="31.805" viewBox="0 0 26.192 31.805">
  <g id="Group_16" data-name="Group 16" transform="translate(-17.6 -7.7)">
    <g id="Group_16-2" data-name="Group 16" transform="translate(17.6 7.7)">
      <path id="Path_54" data-name="Path 54" d="M46.19,17.418,36.719,7.983a.965.965,0,0,0-.671-.283H25.835A4.17,4.17,0,0,0,21.7,11.87v6.361a.95.95,0,0,0,.954.954.776.776,0,0,0,.671-.318,1.016,1.016,0,0,0,.247-.636V11.87a2.278,2.278,0,0,1,2.262-2.262h9.011V14.98a4.17,4.17,0,0,0,4.135,4.17h5.548V33.462a2.278,2.278,0,0,1-2.262,2.262H40.535a.954.954,0,0,0,0,1.908H42.3A4.14,4.14,0,0,0,46.437,33.5V18.09A.768.768,0,0,0,46.19,17.418ZM36.754,14.98V10.668l6.573,6.538H39.016A2.2,2.2,0,0,1,36.754,14.98Z" transform="translate(-20.251 -7.7)" fill="#c7222a"/>
      <path id="Path_55" data-name="Path 55" d="M18.165,53.622h0a.645.645,0,0,0-.565.707.766.766,0,0,0,.177.495l9.011,9.011a.6.6,0,0,0,.848,0l2.085-2.085,6.891-6.926a.844.844,0,0,0,.177-.495c0-.389-.247-.707-.53-.707H32.725V47.65a1.861,1.861,0,0,0-1.59-2.05H23.289a1.861,1.861,0,0,0-1.59,2.05v5.972Z" transform="translate(-17.6 -32.207)" fill="#c7222a"/>
    </g>
  </g>
</svg>
