<svg xmlns="http://www.w3.org/2000/svg" width="20.448" height="19.809" viewBox="0 0 20.448 19.809">
  <g id="Group_4812" data-name="Group 4812" transform="translate(-18 -19)">
    <path id="Path_12854" data-name="Path 12854" d="M31.2,26.525a.639.639,0,0,0-.02.9L37.07,33.6l5.893-6.167a.639.639,0,0,0-.924-.883l-4.33,4.532V19.639a.639.639,0,0,0-1.278,0V31.077L32.1,26.546A.639.639,0,0,0,31.2,26.525Z" transform="translate(-8.847)" fill="#6c7174"/>
    <path id="Path_12855" data-name="Path 12855" d="M18.639,57a.639.639,0,0,0-.639.639v2.9a4.011,4.011,0,0,0,3.979,4.124H34.469a4.011,4.011,0,0,0,3.979-4.124V57.784a.639.639,0,0,0-1.278,0v2.759a2.716,2.716,0,0,1-2.7,2.846H21.979a2.716,2.716,0,0,1-2.7-2.846v-2.9A.639.639,0,0,0,18.639,57Z" transform="translate(0 -25.859)" fill="#6c7174"/>
  </g>
</svg>
