<svg xmlns="http://www.w3.org/2000/svg" width="15.815" height="24.971" viewBox="0 0 15.815 24.971">
  <g id="noun_Download_754605" transform="translate(-4.234 0.471)">
    <path id="Path_1" data-name="Path 1" d="M12,19.725a.5.5,0,0,1-.5-.5V.529a.5.5,0,0,1,1,0v18.7A.5.5,0,0,1,12,19.725Z" fill="#c7222a" stroke="#c7222a" stroke-width="1"/>
    <path id="Path_2" data-name="Path 2" d="M12,19.725a.5.5,0,0,1-.354-.853l7.05-7.05a.5.5,0,0,1,.707.707l-7.05,7.05A.5.5,0,0,1,12,19.725Z" fill="#c7222a" stroke="#c7222a" stroke-width="1"/>
    <path id="Path_3" data-name="Path 3" d="M12,19.725a.5.5,0,0,1-.354-.146L4.88,12.813a.5.5,0,0,1,.707-.707l6.766,6.766a.5.5,0,0,1-.353.853Z" fill="#c7222a" stroke="#c7222a" stroke-width="1"/>
    <path id="Path_4" data-name="Path 4" d="M14.755,24.019H3.841c-.188,0-.341-.228-.341-.51s.153-.51.341-.51H14.755c.188,0,.341.228.341.51S14.943,24.019,14.755,24.019Z" transform="translate(3 -0.019)" fill="#c7222a" stroke="#c7222a" stroke-width="1"/>
  </g>
</svg>
