<svg xmlns="http://www.w3.org/2000/svg" width="16.926" height="16.397" viewBox="0 0 16.926 16.397" fill="#fff">
  <g id="Group_4922" data-name="Group 4922" transform="translate(-18 -19)">
    <path id="Path_12854" data-name="Path 12854" d="M31.164,25.229a.529.529,0,0,0-.017.748l4.878,5.1,4.878-5.1a.529.529,0,0,0-.765-.731L36.554,29V19.529a.529.529,0,0,0-1.058,0V29l-3.585-3.751A.529.529,0,0,0,31.164,25.229Z" transform="translate(-9.562)"/>
    <path id="Path_12855" data-name="Path 12855" d="M18.529,57a.529.529,0,0,0-.529.529v2.4a3.32,3.32,0,0,0,3.294,3.414H31.632a3.32,3.32,0,0,0,3.294-3.414V57.649a.529.529,0,0,0-1.058,0v2.284a2.248,2.248,0,0,1-2.236,2.356H21.294a2.248,2.248,0,0,1-2.236-2.356v-2.4A.529.529,0,0,0,18.529,57Z" transform="translate(0 -27.95)"/>
  </g>
</svg>
