<svg xmlns="http://www.w3.org/2000/svg" width="21.07" height="13.169" viewBox="0 0 21.07 13.169"><g transform="translate(0 -96.003)"><g transform="translate(3.072 96.936)"><g transform="translate(0 0)"><path d="M88.207,126.755c-.414-.862-1.893-2.059-3.322-3.215-.8-.644-1.55-1.254-2.031-1.734a.439.439,0,0,0-.459-.1c-.3.107-.478.19-.622.254a1.452,1.452,0,0,1-.589.162.439.439,0,0,0-.321.192,1.343,1.343,0,0,1-1.693.7c-.137-.046-.162-.1-.175-.161a2.9,2.9,0,0,1,.97-1.882c1.427-1.428,2.162-1.785,3.716-1.09,1.763.788,3.529,1.406,3.547,1.412a.439.439,0,0,0,.289-.83c-.018-.006-1.749-.611-3.477-1.385-2.013-.9-3.118-.307-4.7,1.271-.6.6-1.416,1.816-1.205,2.707a1.086,1.086,0,0,0,.754.791,2.2,2.2,0,0,0,2.578-.883,2.216,2.216,0,0,0,.659-.209c.083-.037.179-.08.307-.132.5.471,1.18,1.02,1.894,1.6a14.684,14.684,0,0,1,3.083,2.912.514.514,0,0,1-.131.659.484.484,0,0,1-.541.106.439.439,0,0,0-.686.408.53.53,0,0,1-.336.494.674.674,0,0,1-.684.016.439.439,0,0,0-.737.28.834.834,0,0,1-.518.672.463.463,0,0,1-.5-.078.444.444,0,0,0-.4-.1.438.438,0,0,0-.308.277c-.017.044-.054.149-.465.149a2.527,2.527,0,0,1-1.075-.368c-.308-.2-2.24-1.644-3.909-3.042-.234-.2-.64-.621-1-.995-.318-.332-.608-.633-.758-.759a.439.439,0,0,0-.567.671c.136.115.4.393.69.7.392.409.8.832,1.068,1.061,1.635,1.369,3.6,2.846,3.991,3.1a3.368,3.368,0,0,0,1.558.511,1.511,1.511,0,0,0,1-.293,1.367,1.367,0,0,0,1-.011,1.729,1.729,0,0,0,.914-.844,1.7,1.7,0,0,0,1.1-.159,1.489,1.489,0,0,0,.733-.766,1.436,1.436,0,0,0,1.007-.361A1.4,1.4,0,0,0,88.207,126.755Z" transform="translate(-74.642 -118.658)"/></g></g><g transform="translate(4.39 97.759)"><path d="M111.056,138.663H107.1a.439.439,0,0,0,0,.878h3.951a.439.439,0,1,0,0-.878Z" transform="translate(-106.666 -138.663)"/></g><g transform="translate(15.836 103.904)"><g transform="translate(0 0)"><path d="M386.9,288.172a.438.438,0,0,0-.609-.119l-1.284.862a.439.439,0,0,0,.49.729l1.284-.862A.439.439,0,0,0,386.9,288.172Z" transform="translate(-384.811 -287.977)"/></g></g><g transform="translate(11.853 103.465)"><g transform="translate(0 0)"><path d="M291.361,280.046c-.314-.248-1.72-1.686-2.589-2.593a.439.439,0,0,0-.634.608c.226.235,2.216,2.31,2.679,2.675a.437.437,0,0,0,.271.094.444.444,0,0,0,.346-.168A.439.439,0,0,0,291.361,280.046Z" transform="translate(-288.016 -277.317)"/></g></g><g transform="translate(10.535 104.783)"><path d="M258.913,311.628c-.526-.421-1.847-1.824-2.146-2.149a.439.439,0,1,0-.647.594c.016.017,1.593,1.719,2.244,2.241a.439.439,0,0,0,.549-.686Z" transform="translate(-256.005 -309.337)"/></g><g transform="translate(8.78 105.66)"><g transform="translate(0 0)"><path d="M216.26,332.942c-.626-.528-1.907-1.891-2.157-2.159a.439.439,0,0,0-.642.6c.36.385,1.586,1.685,2.233,2.231a.439.439,0,1,0,.566-.672Z" transform="translate(-213.343 -330.644)"/></g></g><g transform="translate(0 96.003)"><g transform="translate(0 0)"><path d="M5.131,97c-.752-.713-3.761-.944-4.665-1A.439.439,0,0,0,0,96.442v7.9a.439.439,0,0,0,.439.439H3.073a.439.439,0,0,0,.417-.3,46.024,46.024,0,0,0,1.776-7.122A.437.437,0,0,0,5.131,97Zm-2.378,6.9H.878V96.913a13.337,13.337,0,0,1,3.486.622A46.061,46.061,0,0,1,2.752,103.9Z" transform="translate(0 -96.003)"/></g></g><g transform="translate(14.94 96.881)"><g transform="translate(0 0)"><path d="M368.737,117.33a13.7,13.7,0,0,0-5.439.919.437.437,0,0,0-.234.273.443.443,0,0,0,.048.356,58.357,58.357,0,0,1,2.568,6.908.439.439,0,0,0,.423.322h2.634a.439.439,0,0,0,.439-.439v-7.9A.439.439,0,0,0,368.737,117.33Zm-.439,7.9h-1.866c-.416-1.356-1.645-4.89-2.331-6.351a14.3,14.3,0,0,1,4.2-.667Z" transform="translate(-363.046 -117.33)"/></g></g></g></svg>