<svg xmlns="http://www.w3.org/2000/svg" width="22.484" height="22.491" viewBox="0 0 22.484 22.491"><g transform="translate(-0.501)"><path d="M188.449,4.831A4.831,4.831,0,1,0,193.28,0,4.836,4.836,0,0,0,188.449,4.831Zm8.783,0A3.952,3.952,0,1,1,193.28.878,3.957,3.957,0,0,1,197.232,4.831Zm0,0" transform="translate(-179.692)"/><path d="M5.56,225.353a.439.439,0,0,0,.62,0l2.129-2.1a1.327,1.327,0,0,0,.313-1.363l.458-.442a1.31,1.31,0,0,1,.914-.369h5.838a3.932,3.932,0,0,0,2.757-1.12c.031-.03-.232.279,3.983-4.758a1.757,1.757,0,0,0-2.673-2.28l-2.591,2.663a1.765,1.765,0,0,0-1.365-.654h-4.9a5.665,5.665,0,0,0-2.2-.439,5.433,5.433,0,0,0-4.952,2.808,1.312,1.312,0,0,0-1.175.364l-2.089,2.1a.439.439,0,0,0,0,.619Zm3.285-9.977a4.794,4.794,0,0,1,1.933.4.438.438,0,0,0,.176.037h4.987a.878.878,0,1,1,0,1.757H12.358a.439.439,0,0,0,0,.878h3.583a1.754,1.754,0,0,0,1.741-1.986c2.507-2.577,2.86-2.939,2.875-2.957a.878.878,0,1,1,1.341,1.135l-3.939,4.709a3.058,3.058,0,0,1-2.129.856H9.993a2.183,2.183,0,0,0-1.524.616l-.373.36-3.44-3.44a4.534,4.534,0,0,1,4.19-2.366ZM3.34,218.291a.438.438,0,0,1,.544-.062c.076.046-.142-.152,3.8,3.788a.44.44,0,0,1,0,.619l-1.815,1.788L1.56,220.076Zm0,0" transform="translate(0 -202.992)"/><path d="M266.693,40.428v.515a1.317,1.317,0,0,0,.439,2.559.439.439,0,0,1,0,.878.794.794,0,0,1-.57-.332.439.439,0,0,0-.672.565,1.822,1.822,0,0,0,.8.572V45.7a.439.439,0,1,0,.878,0v-.515a1.317,1.317,0,0,0-.439-2.559.439.439,0,0,1,0-.878.705.705,0,0,1,.475.23.439.439,0,1,0,.611-.631,1.7,1.7,0,0,0-.647-.4v-.512a.439.439,0,1,0-.878,0Zm0,0" transform="translate(-253.632 -38.232)"/></g></svg>