<svg id="Group_4864" data-name="Group 4864" xmlns="http://www.w3.org/2000/svg" width="17.959" height="18" viewBox="0 0 17.959 18">
  <path id="Path_12944" data-name="Path 12944" d="M15.579,6.2A8.959,8.959,0,0,0,6.6,15.179a9.117,9.117,0,0,0,2.6,6.376A8.947,8.947,0,0,0,15.579,24.2a8.736,8.736,0,0,0,6.335-2.645,8.959,8.959,0,0,0,0-12.711A8.77,8.77,0,0,0,15.579,6.2Zm0,1.169a7.669,7.669,0,0,1,5.084,1.907h0l-2.3,2.3h0a4.706,4.706,0,0,0-5.6,0h0l-2.3-2.3h0A7.721,7.721,0,0,1,15.579,7.369ZM18,17.6a3.491,3.491,0,0,1-4.859,0A3.428,3.428,0,1,1,18,17.6ZM7.748,15.179A7.8,7.8,0,0,1,9.634,10.1h0l2.3,2.3a4.525,4.525,0,0,0,0,5.576h0L9.655,20.284h0A7.761,7.761,0,0,1,7.748,15.179Zm7.831,7.831A7.669,7.669,0,0,1,10.5,21.1h0l2.276-2.276h0a4.443,4.443,0,0,0,2.809.964,4.346,4.346,0,0,0,2.788-.964h0l2.276,2.3h0A7.7,7.7,0,0,1,15.579,23.011Zm5.9-2.747-2.3-2.3h0a4.5,4.5,0,0,0,0-5.576l2.3-2.3a7.732,7.732,0,0,1,0,10.169Z" transform="translate(-6.6 -6.2)"/>
</svg>
