<svg xmlns="http://www.w3.org/2000/svg" width="19" height="19" viewBox="0 0 19 19"><path d="M19,12.858A6.156,6.156,0,0,0,14.5,6.94a7.255,7.255,0,1,0-13.5,4l-.979,3.54L3.567,13.5a7.228,7.228,0,0,0,3.373,1,6.144,6.144,0,0,0,9.043,3.644l2.99.827-.827-2.99A6.12,6.12,0,0,0,19,12.858ZM3.743,12.3l-2.12.586.586-2.12-.134-.209a6.14,6.14,0,1,1,1.876,1.876Zm13.634,5.077L15.8,16.941l-.21.137a5.03,5.03,0,0,1-7.5-2.617,7.269,7.269,0,0,0,6.37-6.37,5.03,5.03,0,0,1,2.617,7.5l-.137.21Zm0,0"/><path d="M180.5,271h1.113v1.113H180.5Zm0,0" transform="translate(-173.802 -260.943)"/><path d="M138.84,92.227a1.1,1.1,0,0,1-.362.822l-1.308,1.2V95.6h1.113v-.868l.946-.866a2.227,2.227,0,1,0-3.729-1.643h1.113a1.113,1.113,0,0,1,2.227,0Zm0,0" transform="translate(-130.472 -86.66)"/></svg>