<svg xmlns="http://www.w3.org/2000/svg" width="27.5" height="27.5" viewBox="0 0 27.5 27.5">
  <path id="Path_5" data-name="Path 5" d="M12.911,35.5H8.982A.982.982,0,0,1,8,34.518V30.589a.981.981,0,0,1,.288-.694l8.32-8.321a9.685,9.685,0,0,1-.751-3.752,9.821,9.821,0,1,1,9.821,9.821,9.686,9.686,0,0,1-3.753-.751L19.5,29.32a.981.981,0,0,1-.694.287H16.839v1.964a.982.982,0,0,1-.982.982H13.893v1.964A.982.982,0,0,1,12.911,35.5ZM9.964,33.536h1.964V31.571a.982.982,0,0,1,.982-.982h1.964V28.625a.982.982,0,0,1,.982-.982H18.4L21.02,25.02a.983.983,0,0,1,1.136-.183,7.776,7.776,0,0,0,3.523.842,7.857,7.857,0,1,0-7.857-7.857,7.76,7.76,0,0,0,.842,3.522.984.984,0,0,1-.183,1.136L9.964,31Zm16.7-12.768a3.929,3.929,0,1,1,3.929-3.929A3.933,3.933,0,0,1,26.661,20.768Zm0-5.893a1.964,1.964,0,1,0,1.964,1.964A1.966,1.966,0,0,0,26.661,14.875Z" transform="translate(-8 -8)"/>
</svg>
