<svg xmlns="http://www.w3.org/2000/svg" width="14.017" height="16.798" viewBox="0 0 14.017 16.798">
  <g id="Layer_2" data-name="Layer 2" transform="translate(-26.81 -22.21)">
    <path id="Path_12939" data-name="Path 12939" d="M40.223,22.21H27.414a.6.6,0,0,0-.6.6V38.4a.6.6,0,0,0,.6.6H40.223a.6.6,0,0,0,.6-.6V22.814A.6.6,0,0,0,40.223,22.21Zm-.6,15.589h-11.6V23.419h5.558v4.733a.6.6,0,0,0,.982.471l1.511-1.209L37.479,28.6a.6.6,0,0,0,.994-.459V23.419h1.154Zm-2.363-10.95-.795-.671a.6.6,0,0,0-.768,0l-.907.728V23.422h2.469Z" fill="#fff"/>
    <path id="Path_12940" data-name="Path 12940" d="M42.681,48H34.324a.6.6,0,0,0,0,1.209h8.356a.6.6,0,1,0,0-1.209Z" transform="translate(-4.822 -17.996)" fill="#fff"/>
    <path id="Path_12941" data-name="Path 12941" d="M42.681,55.83H34.324a.6.6,0,0,0,0,1.209h8.356a.6.6,0,1,0,0-1.209Z" transform="translate(-4.822 -23.459)" fill="#fff"/>
    <path id="Path_12942" data-name="Path 12942" d="M42.681,63.65H34.324a.6.6,0,0,0,0,1.209h8.356a.6.6,0,1,0,0-1.209Z" transform="translate(-4.822 -28.916)" fill="#fff"/>
  </g>
</svg>
