<svg id="loading-circle" xmlns="http://www.w3.org/2000/svg" width="15.002" height="15.002" viewBox="0 0 15.002 15.002">
  <path id="Path_12841" data-name="Path 12841" d="M12.768,1.93V.79A.792.792,0,0,1,13.559,0h0a.792.792,0,0,1,.791.79h0V1.93a.793.793,0,0,1-.791.792h0a.793.793,0,0,1-.791-.792Z" transform="translate(-6.059)" fill="#fff"/>
  <path id="Path_12842" data-name="Path 12842" d="M12.768,25.3V24.158a.793.793,0,0,1,.791-.791h0a.793.793,0,0,1,.791.791h0V25.3a.793.793,0,0,1-.791.793h0a.793.793,0,0,1-.791-.793Z" transform="translate(-6.059 -11.089)" fill="#fff"/>
  <path id="Path_12843" data-name="Path 12843" d="M20.5,5.9a.794.794,0,0,1,0-1.119h0l.806-.806a.79.79,0,0,1,1.119,0h0a.787.787,0,0,1,0,1.117h0l-.806.808a.8.8,0,0,1-.559.231h0A.8.8,0,0,1,20.5,5.9Z" transform="translate(-9.617 -1.775)" fill="#fff"/>
  <path id="Path_12844" data-name="Path 12844" d="M3.971,22.42a.8.8,0,0,1,0-1.12h0l.807-.806a.794.794,0,0,1,1.12,0h0a.794.794,0,0,1,0,1.12h0l-.807.806a.789.789,0,0,1-.56.231h0a.787.787,0,0,1-.56-.231Z" transform="translate(-1.775 -9.616)" fill="#fff"/>
  <path id="Path_12845" data-name="Path 12845" d="M24.16,14.349a.791.791,0,0,1-.791-.79h0a.791.791,0,0,1,.791-.791H25.3a.794.794,0,0,1,.792.791h0a.792.792,0,0,1-.792.79H24.16Z" transform="translate(-11.09 -6.059)" fill="#fff"/>
  <path id="Path_12846" data-name="Path 12846" d="M.791,14.349A.79.79,0,0,1,0,13.558H0a.791.791,0,0,1,.791-.791H1.93a.793.793,0,0,1,.791.791h0a.791.791,0,0,1-.791.79H.791Z" transform="translate(0 -6.059)" fill="#fff"/>
  <path id="Path_12847" data-name="Path 12847" d="M21.3,22.42l-.806-.808a.791.791,0,0,1,0-1.118h0a.792.792,0,0,1,1.118,0h0l.806.806a.794.794,0,0,1,0,1.12h0a.793.793,0,0,1-.56.231h0a.79.79,0,0,1-.56-.231Z" transform="translate(-9.617 -9.616)" fill="#fff"/>
  <path id="Path_12848" data-name="Path 12848" d="M4.777,5.9l-.807-.808a.791.791,0,0,1,0-1.117h0a.79.79,0,0,1,1.119,0h0l.807.806A.793.793,0,0,1,5.9,5.9h0a.8.8,0,0,1-.56.231h0a.8.8,0,0,1-.56-.231Z" transform="translate(-1.775 -1.775)" fill="#fff"/>
</svg>
