<svg xmlns="http://www.w3.org/2000/svg" width="14.55" height="10.913" viewBox="0 0 14.55 10.913">
  <path id="envelope" d="M13.186,59.882H1.364A1.366,1.366,0,0,0,0,61.246v8.184a1.366,1.366,0,0,0,1.364,1.364H13.186a1.366,1.366,0,0,0,1.364-1.364V61.246A1.366,1.366,0,0,0,13.186,59.882Zm0,.909a.452.452,0,0,1,.174.035L7.275,66.1,1.19,60.827a.453.453,0,0,1,.174-.035Zm0,9.094H1.364a.455.455,0,0,1-.455-.455V61.787l6.068,5.259a.455.455,0,0,0,.6,0l6.068-5.259v7.643A.455.455,0,0,1,13.186,69.885Z" transform="translate(0 -59.882)" fill="#3b3e40"/>
</svg>
