<svg xmlns="http://www.w3.org/2000/svg" width="44.854" height="49" viewBox="0 0 44.854 49">
  <g id="Group" transform="translate(-9.8 -6.1)">
    <path id="Compound_Path" data-name="Compound Path" d="M54.654,12.627A6.583,6.583,0,0,0,48.126,6.1H15.267A5.467,5.467,0,0,0,9.8,11.567V28.3a5.579,5.579,0,0,0,5.579,5.579H18.5V41.86a5.579,5.579,0,0,0,5.579,5.579h6.471L30.33,53.91a1.116,1.116,0,0,0,.558,1l.558.167a1.116,1.116,0,0,0,.614-.167l4.519-2.9,4.519,2.9a1.116,1.116,0,0,0,1.729-1L42.6,47.439h6.471a5.579,5.579,0,0,0,5.579-5.579ZM18.447,31.651H15.379A3.347,3.347,0,0,1,12.032,28.3V11.567a3.236,3.236,0,1,1,6.471,0ZM36.578,43.59a6.583,6.583,0,1,1,6.583-6.583A6.583,6.583,0,0,1,36.578,43.59Zm.614,6.192a1.116,1.116,0,0,0-1.172,0L32.673,51.9l.279-6.918a8.7,8.7,0,0,0,7.364,0L40.6,51.9Zm15.23-7.922a3.347,3.347,0,0,1-3.347,3.347H42.492V43.534a8.815,8.815,0,1,0-11.715,0v1.674h-6.75a3.347,3.347,0,0,1-3.347-3.347V11.567a5.411,5.411,0,0,0-1.06-3.236H48.126a4.351,4.351,0,0,1,4.3,4.3Z" transform="translate(0 0)" fill="#f7a501"/>
    <path id="Path" d="M49.458,32.7H39.416a1.116,1.116,0,1,0,0,2.232H49.458a1.116,1.116,0,1,0,0-2.232Z" transform="translate(-12.6 -11.76)" fill="#f7a501"/>
    <path id="Path-2" data-name="Path" d="M58.161,20.1H39.416a1.116,1.116,0,0,0,0,2.232H58.161a1.116,1.116,0,0,0,0-2.232Z" transform="translate(-12.6 -6.19)" fill="#f7a501"/>
  </g>
</svg>
