<svg xmlns="http://www.w3.org/2000/svg" width="43.135" height="42.475" viewBox="0 0 43.135 42.475">
  <g id="Layer_15" data-name="Layer 15" transform="translate(-1.003 -1.356)">
    <path id="Path_12824" data-name="Path 12824" d="M41.462,11.934A7.566,7.566,0,0,0,33.94,4.342H31.6v-1.8a.937.937,0,1,0-1.874,0v1.8H12.991v-1.8a.937.937,0,1,0-1.874,0v1.8H8.845a7.6,7.6,0,0,0-7.592,7.592V34.048A7.6,7.6,0,0,0,8.845,41.64H26.372a10.916,10.916,0,0,0,6.32,1.941,11.21,11.21,0,0,0,11.2-11.2,10.858,10.858,0,0,0-2.427-6.837ZM8.845,39.765a5.724,5.724,0,0,1-5.717-5.718V11.934A5.724,5.724,0,0,1,8.845,6.217h2.272v3.77a.937.937,0,1,0,1.874,0V6.217H29.725v3.77a.937.937,0,1,0,1.874,0V6.217H33.94a5.69,5.69,0,0,1,5.648,5.717V23.591l-.033-.025c-.042-.033-.086-.062-.129-.1q-.372-.289-.767-.544c-.1-.061-.192-.119-.289-.177q-.347-.208-.708-.39c-.094-.047-.186-.1-.281-.141a10.8,10.8,0,0,0-1.015-.417c-.031-.011-.062-.018-.093-.028-.318-.107-.642-.2-.971-.277-.11-.026-.222-.048-.333-.071q-.4-.082-.809-.135c-.111-.014-.221-.031-.333-.042-.375-.037-.753-.063-1.136-.063a11.132,11.132,0,0,0-11.124,12.4c.013.12.032.238.049.358q.061.43.154.851c.027.123.053.245.085.367q.124.484.291.954c.022.061.038.125.061.186a11.309,11.309,0,0,0,.469,1.073c.053.106.112.208.168.313.132.247.272.488.422.725.074.117.149.232.227.345.164.238.338.468.52.693.069.085.133.174.2.257.016.019.03.04.046.059Zm33.169-7.382a9.333,9.333,0,0,1-9.323,9.322,9.036,9.036,0,0,1-5.478-1.76,9.335,9.335,0,0,1,5.478-16.884,9.5,9.5,0,0,1,1.071.062,8.926,8.926,0,0,1,6.047,3.349,9.061,9.061,0,0,1,2.2,5.911Z" transform="translate(0)" fill="#ffa000" stroke="#ffa000" stroke-width="0.5"/>
    <path id="Path_12825" data-name="Path 12825" d="M35.674,33.753V30.517a.937.937,0,0,0-1.874,0v3.624a.937.937,0,0,0,.275.663L36.6,37.329A.937.937,0,1,0,37.924,36Z" transform="translate(-2.045 -1.757)" fill="#ffa000" stroke="#ffa000" stroke-width="0.5"/>
    <path id="Path_12826" data-name="Path 12826" d="M20.835,19.608H11.076a.937.937,0,0,0,0,1.874h9.759a.937.937,0,0,0,0-1.874Z" transform="translate(-0.558 -1.131)" fill="#ffa000" stroke="#ffa000" stroke-width="0.5"/>
    <path id="Path_12827" data-name="Path 12827" d="M14.3,28.433H11.076a.937.937,0,0,0,0,1.874H14.3a.937.937,0,0,0,0-1.874Z" transform="translate(-0.558 -1.685)" fill="#ffa000" stroke="#ffa000" stroke-width="0.5"/>
  </g>
</svg>
