<svg xmlns="http://www.w3.org/2000/svg" width="49" height="49" viewBox="0 0 49 49">
  <g id="noun_balance_sheet_2050702" data-name="noun_balance sheet_2050702" transform="translate(-2 -2)">
    <path id="Path_12976" data-name="Path 12976" d="M49.935,15.848H36.087V3.065A1.065,1.065,0,0,0,35.022,2H3.065A1.065,1.065,0,0,0,2,3.065V42.478A8.531,8.531,0,0,0,10.522,51H42.478A8.532,8.532,0,0,0,51,42.478V16.913a1.065,1.065,0,0,0-1.065-1.065ZM36.847,48.87H10.522A6.4,6.4,0,0,1,4.13,42.478V4.13H33.957V42.478a8.57,8.57,0,0,0,.05.907c.011.1.031.195.045.293.028.2.056.394.1.587.025.114.058.225.087.337.044.171.088.342.142.509.038.118.084.231.127.347.059.156.118.312.185.464.051.115.108.227.164.34.072.145.146.289.226.429.063.111.13.218.2.325.085.135.173.267.265.4.074.1.15.205.229.306.1.125.2.246.3.365.084.1.168.19.256.281.11.115.225.225.342.334C36.733,48.755,36.787,48.816,36.847,48.87ZM48.87,42.478a6.391,6.391,0,1,1-12.783,0v-24.5H48.87Z" fill="#f7a501"/>
    <path id="Path_12978" data-name="Path 12978" d="M18.565,37.13H33.478a1.065,1.065,0,1,0,0-2.13H18.565a1.065,1.065,0,1,0,0,2.13Z" transform="translate(-7.245 -15.424)" fill="#f7a501"/>
    <path id="Path_12979" data-name="Path 12979" d="M33.967,46h-22.9a1.065,1.065,0,1,0,0,2.13h22.9a1.065,1.065,0,1,0,0-2.13Z" transform="translate(-3.739 -20.565)" fill="#f7a501"/>
    <path id="Path_12980" data-name="Path 12980" d="M33.967,54h-22.9a1.065,1.065,0,1,0,0,2.13h22.9a1.065,1.065,0,1,0,0-2.13Z" transform="translate(-3.739 -24.304)" fill="#f7a501"/>
    <path id="Path_12981" data-name="Path 12981" d="M33.967,62h-22.9a1.065,1.065,0,1,0,0,2.13h22.9a1.065,1.065,0,1,0,0-2.13Z" transform="translate(-3.739 -28.043)" fill="#f7a501"/>
    <path id="Path_12982" data-name="Path 12982" d="M33.967,71h-22.9a1.065,1.065,0,1,0,0,2.13h22.9a1.065,1.065,0,0,0,0-2.13Z" transform="translate(-3.739 -32.25)" fill="#f7a501"/>
  </g>
</svg>
