<svg xmlns="http://www.w3.org/2000/svg" width="40" height="40" viewBox="0 0 40 40">
  <g id="Upsell_opportunity" data-name="Upsell opportunity" transform="translate(0 8)">
    <rect id="Rectangle_3879" data-name="Rectangle 3879" width="40" height="40" transform="translate(0 -8)" fill="none"/>
    <g id="Group_4863" data-name="Group 4863">
      <path id="Path_13006" data-name="Path 13006" d="M124.436,29.971a9.854,9.854,0,0,1-8.545-4.922h0a9.852,9.852,0,1,1,8.545,4.922Zm-7.867-5.315a9.06,9.06,0,1,0-.905-6.875,9.06,9.06,0,0,0,.905,6.875Z" transform="translate(-105.425 -17.268)" fill="#f7a501" stroke="#f7a501" stroke-width="0.4"/>
      <path id="Path_13009" data-name="Path 13009" d="M235.393,253.045a.393.393,0,0,1-.393-.393v-1.259a.393.393,0,0,1,.787,0v1.259A.393.393,0,0,1,235.393,253.045Z" transform="translate(-216.382 -239.063)" fill="#f7a501" stroke="#f7a501" stroke-width="0.4"/>
      <path id="Path_13013" data-name="Path 13013" d="M129.368,324.565a1.722,1.722,0,0,1-1.275-.579,2.211,2.211,0,0,1-.079-2.837,1.731,1.731,0,0,1,1.29-.657l1.329-.035,4.456-.112a1.719,1.719,0,0,1,1.325.579,2.211,2.211,0,0,1,.079,2.837,1.731,1.731,0,0,1-1.289.657l-5.785.147Zm5.767-3.434h-.026l-5.785.146a.952.952,0,0,0-.7.37,1.426,1.426,0,0,0,.052,1.809.951.951,0,0,0,.724.325h0l5.783-.146a.954.954,0,0,0,.708-.37,1.428,1.428,0,0,0-.053-1.809A.949.949,0,0,0,135.135,321.132Z" transform="translate(-117.374 -302.952)" fill="#f7a501" stroke="#f7a501" stroke-width="0.4"/>
      <path id="Path_13014" data-name="Path 13014" d="M126.888,366.729a1.72,1.72,0,0,1-1.273-.579,2.156,2.156,0,0,1-.556-1.4,2.124,2.124,0,0,1,.629-1.573,2.372,2.372,0,0,1,1.837-.642.394.394,0,1,1-.037.787,1.622,1.622,0,0,0-1.248.418,1.333,1.333,0,0,0-.4.987,1.374,1.374,0,0,0,.349.894.944.944,0,0,0,.725.326l1.263-.029,5.237-.161a.951.951,0,0,0,.708-.37,1.363,1.363,0,0,0,.3-.912,1.573,1.573,0,0,0-.307-.931.792.792,0,0,0-.622-.32h-.05l-.456-.017a.394.394,0,1,1,.028-.787l.444.016a1.559,1.559,0,0,1,1.275.617,2.355,2.355,0,0,1,.478,1.4,2.153,2.153,0,0,1-.472,1.435,1.731,1.731,0,0,1-1.291.658l-5.245.161-1.263.028Z" transform="translate(-115.089 -341.715)" fill="#f7a501" stroke="#f7a501" stroke-width="0.4"/>
      <path id="Path_13015" data-name="Path 13015" d="M127.446,409.266a1.723,1.723,0,0,1-1.274-.579,2.157,2.157,0,0,1-.556-1.4,2.028,2.028,0,0,1,1.909-2.059.394.394,0,0,1,.024.787,1.187,1.187,0,0,0-.8.377,1.2,1.2,0,0,0-.348.872,1.375,1.375,0,0,0,.348.894.937.937,0,0,0,.724.325l5.786-.146a.95.95,0,0,0,.708-.37,1.428,1.428,0,0,0-.052-1.805.951.951,0,0,0-.725-.326.394.394,0,0,1-.024-.787,1.72,1.72,0,0,1,1.326.578,2.211,2.211,0,0,1,.079,2.837,1.731,1.731,0,0,1-1.291.658l-5.784.146Z" transform="translate(-115.603 -380.989)" fill="#f7a501" stroke="#f7a501" stroke-width="0.4"/>
      <path id="Path_13016" data-name="Path 13016" d="M136.34,451.59a1.724,1.724,0,0,1-1.274-.579,2.212,2.212,0,0,1-.079-2.837,1.731,1.731,0,0,1,1.291-.658.394.394,0,0,1,.024.787.949.949,0,0,0-.708.37,1.425,1.425,0,0,0,.052,1.805.944.944,0,0,0,.724.325l1.113-.028,3.628-.088a.95.95,0,0,0,.7-.37,1.426,1.426,0,0,0-.052-1.809.944.944,0,0,0-.724-.325.393.393,0,1,1-.024-.787,1.715,1.715,0,0,1,1.323.582,2.213,2.213,0,0,1,.083,2.837,1.731,1.731,0,0,1-1.291.658l-4.74.116Z" transform="translate(-123.798 -420.009)" fill="#f7a501" stroke="#f7a501" stroke-width="0.4"/>
      <path id="Path_13017" data-name="Path 13017" d="M188.623,271.6h-.016l-2.539-.107a.393.393,0,0,1-.352-.259c-.758-2.079-2.878-3.626-6.477-4.729a2.155,2.155,0,0,0-1.16,0c-.194.073-3.276,1.236-4.327,1.637a.166.166,0,0,0-.03.009.623.623,0,0,0-.331.3,1.156,1.156,0,0,0,.051.877.894.894,0,0,0,.551.534,4.956,4.956,0,0,0,3.55-.7.393.393,0,0,1,.387.014l1.929,1.19a.394.394,0,0,1-.414.67l-1.742-1.075a5.424,5.424,0,0,1-4,.633,1.681,1.681,0,0,1-1.007-1,1.858,1.858,0,0,1-.012-1.513,1.4,1.4,0,0,1,.787-.686c1.1-.416,4.3-1.625,4.331-1.637l.014,0a2.93,2.93,0,0,1,1.646,0c3.714,1.137,5.971,2.763,6.889,4.964l2.281.1a.393.393,0,0,1-.017.787Z" transform="translate(-158.831 -252.552)" fill="#f7a501" stroke="#f7a501" stroke-width="0.4"/>
      <path id="Path_13018" data-name="Path 13018" d="M219.423,458.222a1.727,1.727,0,0,1-.2-.006h-5.639a.393.393,0,1,1,0-.787h5.687a3.02,3.02,0,0,0,3.245-2.375.393.393,0,0,1,.383-.315l3.648-.021h0a.393.393,0,0,1,0,.787l-3.341.019a3.468,3.468,0,0,1-2.236,2.428A4.671,4.671,0,0,1,219.423,458.222Z" transform="translate(-196.288 -426.757)" fill="#f7a501" stroke="#f7a501" stroke-width="0.4"/>
      <path id="Path_13019" data-name="Path 13019" d="M235.393,334.673a.393.393,0,0,1,0-.787,1.337,1.337,0,0,0,1.23-.551,1.3,1.3,0,0,0,.186-.59V326.54a7.576,7.576,0,0,1,0-.865.394.394,0,0,1,.787.03v.748a6.576,6.576,0,0,0,1.337,3.874,4.441,4.441,0,0,0,3.175,1.476.394.394,0,1,1-.058.787,5.212,5.212,0,0,1-3.716-1.752,5.521,5.521,0,0,1-.738-1.118v3.026A2,2,0,0,1,235.393,334.673Z" transform="translate(-216.382 -307.515)" fill="#f7a501" stroke="#f7a501" stroke-width="0.4"/>
      <path id="Path_13020" data-name="Path 13020" d="M380.439,336.485h-2.045a.393.393,0,0,1-.393-.393v-10.7a.393.393,0,0,1,.393-.393h2.045a.393.393,0,1,1,0,.787h-1.652V335.7h1.652a.393.393,0,1,1,0,.787Z" transform="translate(-348.133 -307.241)" fill="#f7a501" stroke="#f7a501" stroke-width="0.4"/>
      <path id="Path_13021" data-name="Path 13021" d="M412.159,322.609h-6.765a.393.393,0,0,1-.393-.393V309.393a.393.393,0,0,1,.393-.393h6.765a.393.393,0,0,1,.393.393v12.822a.393.393,0,0,1-.393.393Zm-6.372-.787h5.979V309.787h-5.979Z" transform="translate(-373.009 -292.5)" fill="#f7a501" stroke="#f7a501" stroke-width="0.4"/>
      <path id="Path_13022" data-name="Path 13022" d="M436.393,442.337a.393.393,0,0,1-.393-.393v-.551a.393.393,0,0,1,.787,0v.551A.393.393,0,0,1,436.393,442.337Z" transform="translate(-401.57 -414.116)" fill="#f7a501" stroke="#f7a501" stroke-width="0.4"/>
      <path id="Path_13023" data-name="Path 13023" d="M454.791,173.824h0a.393.393,0,0,1-.393-.393l0-2.742-2.719.009h0a.393.393,0,1,1,0-.787l3.114-.011h0a.393.393,0,0,1,.393.393l-.005,3.138A.393.393,0,0,1,454.791,173.824Z" transform="translate(-415.658 -164.343)" fill="#f7a501" stroke="#f7a501" stroke-width="0.4"/>
      <path id="Path_13024" data-name="Path 13024" d="M293.663,180.518a.393.393,0,0,1-.278-.115l-3.461-3.461-3.217,3.217a.393.393,0,1,1-.556-.556l3.5-3.49a.393.393,0,0,1,.557,0l3.461,3.461,8.49-8.5a.393.393,0,0,1,.551.551l-8.771,8.771A.393.393,0,0,1,293.663,180.518Z" transform="translate(-263.402 -165.355)" fill="#f7a501" stroke="#f7a501" stroke-width="0.4"/>
      <path id="Path_13025" data-name="Path 13025" d="M11.431,372.027a.393.393,0,0,1-.278-.669l7.454-7.454a.393.393,0,0,1,.278-.115h0a.393.393,0,0,1,.278.115l1.472,1.467a.395.395,0,0,1-.559.559l-1.192-1.192-7.175,7.17A.394.394,0,0,1,11.431,372.027Z" transform="translate(-10.041 -342.98)" fill="#f7a501" stroke="#f7a501" stroke-width="0.4"/>
      <path id="Path_12957" data-name="Path 12957" d="M173.411,143.085h-1.1a2.574,2.574,0,0,0-.6-1.275h1.7a.555.555,0,1,0,.006-1.109H167.8a.555.555,0,1,0,0,1.109h1.608a1.874,1.874,0,0,1,1.769,1.275H167.8a.554.554,0,1,0,0,1.109h3.377a1.922,1.922,0,0,1-.46.771,1.848,1.848,0,0,1-1.309.56H167.8a.537.537,0,0,0-.383.932l4.015,3.793a.548.548,0,0,0,.782-.028.534.534,0,0,0-.011-.754c-.006-.006-.011-.006-.011-.011l-3-2.822h.211a2.978,2.978,0,0,0,2.1-.882,2.858,2.858,0,0,0,.815-1.558h1.1a.554.554,0,0,0,0-1.109Z" transform="translate(-151.594 -142.302)" fill="#f7a501"/>
    </g>
  </g>
</svg>
