<svg xmlns="http://www.w3.org/2000/svg" width="50" height="50" viewBox="0 0 50 50">
  <g id="Group_4939" data-name="Group 4939" transform="translate(-1 -1)">
    <path id="Path_12939" data-name="Path 12939" d="M33.9,51.006H22.739l.989-.989a.764.764,0,0,0,0-1.082l-9.181-9.181a.763.763,0,0,0-.541-.224H2.53V38H1V51.771H2.53v-1.53H9.143l8.2,6.713a.764.764,0,0,0,.484.173H33.9a.765.765,0,0,0,.765-.765v-4.59A.765.765,0,0,0,33.9,51.006Zm-.765,4.59H18.1L9.9,48.884a.764.764,0,0,0-.484-.173H2.53V41.06H13.69l8.416,8.416-1.978,1.978-4.05-4.05L15,48.487l4.59,4.59a.765.765,0,0,0,1.082,0l.541-.541H33.133Z" transform="translate(0 -6.127)" fill="#c7222a"/>
    <path id="Path_12940" data-name="Path 12940" d="M53.952,40.5V32.711a10.711,10.711,0,0,0-21.422,0V40.5a2.29,2.29,0,0,0,.765,4.45H53.187a2.29,2.29,0,0,0,.765-4.45Zm-.765,2.92H33.3a.765.765,0,0,1,0-1.53h2.3v-1.53H34.06V32.711a9.181,9.181,0,1,1,18.362,0v7.651h-1.53v1.53h2.3a.765.765,0,1,1,0,1.53Z" transform="translate(-4.482 -3.25)" fill="#c7222a"/>
    <path id="Path_12942" data-name="Path 12942" d="M50.181,18.121H48.225l1.907-5.086a.765.765,0,0,0-1-.979L45.59,13.471,42.05,12.054a.765.765,0,0,0-1,.979l1.907,5.087H41v1.53h9.181Zm-5.59,0-1.5-4,2.216.887a.761.761,0,0,0,.568,0l2.216-.887-1.5,4Z" transform="translate(-7.345 -2.042)" fill="#c7222a"/>
    <path id="Path_12943" data-name="Path 12943" d="M13.241,25.482a12.152,12.152,0,0,0,6.629-1.956l4.553,1.9a.751.751,0,0,0,.295.06.765.765,0,0,0,.706-1.06l-1.9-4.553a12.238,12.238,0,1,0-10.286,5.613Zm0-22.952a10.7,10.7,0,0,1,8.793,16.817.768.768,0,0,0-.079.731L23.3,23.3l-3.217-1.34a.76.76,0,0,0-.731.079,10.709,10.709,0,1,1-6.106-19.5Z" fill="#c7222a"/>
    <path id="Path_12944" data-name="Path 12944" d="M11.06,14.121A3.06,3.06,0,1,0,8,11.06,3.063,3.063,0,0,0,11.06,14.121Zm0-4.59a1.53,1.53,0,1,1-1.53,1.53A1.532,1.532,0,0,1,11.06,9.53Z" transform="translate(-1.644 -1.644)" fill="#c7222a"/>
    <path id="Path_12945" data-name="Path 12945" d="M21.06,18a3.06,3.06,0,1,0,3.06,3.06A3.063,3.063,0,0,0,21.06,18Zm0,4.59a1.53,1.53,0,1,1,1.53-1.53A1.532,1.532,0,0,1,21.06,22.59Z" transform="translate(-3.186 -3.186)" fill="#c7222a"/>
    <rect id="Rectangle_3870" data-name="Rectangle 3870" width="17.311" height="1.53" transform="translate(6.579 18.821) rotate(-45)" fill="#c7222a"/>
    <g id="noun_Rupee_842809" transform="translate(34.479 25.186)">
      <g id="Group_4941" data-name="Group 4941" transform="translate(0 0)">
        <g id="Group_4940" data-name="Group 4940" transform="translate(0 0)">
          <path id="Path_12946" data-name="Path 12946" d="M167,38.679v4.272a3.193,3.193,0,0,1-.009.381l.018-.136a1.205,1.205,0,0,1-.077.287l.051-.122a1.322,1.322,0,0,1-.169.289l.08-.1a1.472,1.472,0,0,1-.24.24l.1-.08a1.532,1.532,0,0,1-.33.194l.122-.051a1.48,1.48,0,0,1-.352.1l.136-.018a5.8,5.8,0,0,1-.754.013h-2.816a.515.515,0,0,0-.51.51.656.656,0,0,0,.1.409l.122.161.487.644,1.571,2.078,1.652,2.186.876,1.159.012.016a.556.556,0,0,0,.305.235.511.511,0,0,0,.628-.357.49.49,0,0,0-.051-.393l-.725-.96-1.6-2.122L164,45.358l-.79-1.045,0,0,.07.258v-.115l-.51.51h3.408a1.98,1.98,0,0,0,1.237-.48,1.715,1.715,0,0,0,.6-1.152,2.076,2.076,0,0,0,.009-.25v-4.4a.51.51,0,0,0-1.021,0Z" transform="translate(-162.257 -38.168)" fill="#c7222a" stroke="#c7222a" stroke-width="0.5"/>
        </g>
      </g>
      <g id="Group_4943" data-name="Group 4943" transform="translate(0 2.812)">
        <g id="Group_4942" data-name="Group 4942">
          <path id="Path_12947" data-name="Path 12947" d="M170.422,230.947h-7.655a.51.51,0,1,0,0,1.021h7.655a.51.51,0,0,0,0-1.021Z" transform="translate(-162.256 -230.947)" fill="#c7222a" stroke="#c7222a" stroke-width="0.5"/>
        </g>
      </g>
      <g id="Group_4945" data-name="Group 4945">
        <g id="Group_4944" data-name="Group 4944">
          <path id="Path_12948" data-name="Path 12948" d="M162.767,39.187h7.655a.51.51,0,1,0,0-1.021h-7.655a.51.51,0,1,0,0,1.021Z" transform="translate(-162.256 -38.166)" fill="#c7222a" stroke="#c7222a" stroke-width="0.5"/>
        </g>
      </g>
    </g>
  </g>
</svg>
