<svg xmlns="http://www.w3.org/2000/svg" width="45.728" height="55.744" viewBox="0 0 45.728 55.744">
  <g id="Group_4502" data-name="Group 4502" transform="translate(-1198.718 -602.745)">
    <path id="Path_12884" data-name="Path 12884" d="M130.646.064a1.633,1.633,0,0,0-1.835.7,3.123,3.123,0,0,1-2.7,1.5,3.123,3.123,0,0,1-2.7-1.5,1.633,1.633,0,0,0-2.77,0,3.123,3.123,0,0,1-2.7,1.5,3.123,3.123,0,0,1-2.7-1.5,1.633,1.633,0,0,0-2.77,0,3.123,3.123,0,0,1-2.7,1.5,3.123,3.123,0,0,1-2.7-1.5,1.633,1.633,0,0,0-2.77,0,3.123,3.123,0,0,1-2.7,1.5,3.123,3.123,0,0,1-2.7-1.5,1.633,1.633,0,0,0-3.018.866V42.679L91,55.744h32.662a8.175,8.175,0,0,0,8.166-8.165V1.634a1.633,1.633,0,0,0-1.183-1.57Z" transform="translate(1112.617 602.744)" fill="#eecac7"/>
    <path id="Path_12885" data-name="Path 12885" d="M63.557,113.141H78.263a1.225,1.225,0,0,0,0-2.451H63.557a1.225,1.225,0,0,0,0,2.451Zm7.353-9.885a1.227,1.227,0,0,1-1.225-1.225,1.225,1.225,0,0,0-2.451,0,3.682,3.682,0,0,0,2.451,3.466v1.518a1.225,1.225,0,1,0,2.451,0V105.5a3.676,3.676,0,0,0-1.225-7.142,1.225,1.225,0,1,1,1.225-1.225,1.225,1.225,0,0,0,2.451,0,3.682,3.682,0,0,0-2.451-3.466V92.226a1.225,1.225,0,1,0-2.451,0v1.436A3.676,3.676,0,0,0,70.91,100.8a1.225,1.225,0,1,1,0,2.451Zm7.353,12.336H63.557a1.225,1.225,0,0,0,0,2.451H78.263a1.225,1.225,0,1,0,0-2.451Z" transform="translate(1156.57 526.149)" fill="#c7222a"/>
    <path id="Path_12886" data-name="Path 12886" d="M46,125.4v6.532a4.9,4.9,0,0,0,9.8,0v-8.165H47.634A1.633,1.633,0,0,0,46,125.4Z" transform="translate(1152.717 521.651)" fill="#eea7a1"/>
  </g>
</svg>
