<svg xmlns="http://www.w3.org/2000/svg" width="40" height="40" viewBox="0 0 40 40"><defs><style>.a{fill:none;}.b{fill:#f7a501;stroke:#f7a501;stroke-width:0.3px;}</style></defs><g transform="translate(0 8)"><rect class="a" width="40" height="40" transform="translate(0 -8)"/><g transform="translate(-1.812 -11.277)"><path class="b" d="M12.759,33.945a.557.557,0,0,1-.576-.535V9.1a3.876,3.876,0,0,1,4.005-3.725h26.17a.537.537,0,1,1,0,1.071H16.188A2.763,2.763,0,0,0,13.334,9.1V33.41a.557.557,0,0,1-.576.535Z" transform="translate(-4.732)"/><path class="b" d="M64.593,12.741H57.748a.535.535,0,0,1-.535-.535V9.335a3.958,3.958,0,1,1,7.916,0v2.871A.535.535,0,0,1,64.593,12.741Zm-6.31-1.071h5.774V9.335a2.887,2.887,0,1,0-5.775,0Z" transform="translate(-23.504 0)"/><path class="b" d="M27.55,44.7H7.18A5.186,5.186,0,0,1,2,39.519v-.642a.535.535,0,0,1,.535-.535H23.008a.535.535,0,0,1,.535.535v.746a4.007,4.007,0,1,0,8.013,0V17.674a.535.535,0,0,1,1.071,0V39.622A5.086,5.086,0,0,1,27.55,44.7ZM3.071,39.411v.107a4.114,4.114,0,0,0,4.11,4.11H24.435a5.072,5.072,0,0,1-1.962-4.006V39.41Z" transform="translate(0 -3.521)"/><path class="b" d="M31.794,25.185a.535.535,0,0,1-.319-.107c-2.206-1.632-4.247-3.64-4.247-7.267V16.187a.535.535,0,0,1,.161-.384.518.518,0,0,1,.39-.15,4.223,4.223,0,0,0,3.6-1.579.518.518,0,0,1,.434-.194.535.535,0,0,1,.417.227c.677.964,1.827,1.456,3.619,1.547a.535.535,0,0,1,.508.535v1.626a7.525,7.525,0,0,1-1.143,4.14,11.856,11.856,0,0,1-3.1,3.127.535.535,0,0,1-.315.1ZM28.3,16.718v1.1c0,2.478.986,4.233,3.495,6.166a10.291,10.291,0,0,0,2.516-2.6,6.488,6.488,0,0,0,.977-3.568V16.684a5.449,5.449,0,0,1-3.513-1.456A5.187,5.187,0,0,1,28.3,16.718Z" transform="translate(-10.697 -3.95)"/><path class="b" d="M33.185,24.222a.535.535,0,0,1-.378-.157l-.813-.813a.535.535,0,1,1,.757-.757l.434.434L35.119,21a.535.535,0,1,1,.757.757l-2.313,2.313A.535.535,0,0,1,33.185,24.222Z" transform="translate(-12.832 -6.657)"/><path class="b" d="M36.352,41.071H20.292a.535.535,0,1,1,0-1.071h16.06a.535.535,0,0,1,0,1.071Z" transform="translate(-7.246 -14.989)"/><path class="b" d="M36.352,48.071H20.292a.535.535,0,1,1,0-1.071h16.06a.535.535,0,1,1,0,1.071Z" transform="translate(-7.246 -18.02)"/></g></g></svg>