<svg xmlns="http://www.w3.org/2000/svg" width="40" height="40" viewBox="0 0 40 40"><defs><style>.a{fill:none;}.b{fill:#f7a501;}</style></defs><g transform="translate(0 8)"><rect class="a" width="40" height="40" transform="translate(0 -8)"/><g transform="translate(0.21 -7.809)"><g transform="translate(0 23.977)"><path class="b" d="M35.555,316.5l-.009-.023c-.711-1.665-2.38-2.28-4.355-1.606l-5.385,1.489a3.53,3.53,0,0,0-2.186-2.153l-.02-.007-5.919-2.009a6.106,6.106,0,0,0-4.926-2.266,6.181,6.181,0,0,0-4.828,2.9H.773A.773.773,0,0,0,0,313.59v9.745a.773.773,0,0,0,.773.773h4.6a.773.773,0,0,0,.773-.773v-.667H8.3a.773.773,0,0,0,.773-.773v-.222a5.48,5.48,0,0,1,2.823,1.013,46.774,46.774,0,0,0,4.644,2.371l.034.014a6.939,6.939,0,0,0,2.487.469,6.161,6.161,0,0,0,2.561-.548l11.9-4.262c.021-.008.042-.016.062-.026A3.3,3.3,0,0,0,35.555,316.5ZM4.6,322.562H1.546v-8.2H4.6Zm2.928-1.44H6.142v-6.759H7.524Zm25.442-1.836-11.9,4.26-.035.013-.031.013a5.01,5.01,0,0,1-3.849.066,44.781,44.781,0,0,1-4.488-2.292,6.957,6.957,0,0,0-3.6-1.223V313.9a4.774,4.774,0,0,1,3.685-2.43,4.46,4.46,0,0,1,3.784,1.778.773.773,0,0,0,.41.327l6.143,2.085a1.734,1.734,0,0,1,1.261,2.046,1.506,1.506,0,0,1-1.85,1.04l-6.925-2.195a.773.773,0,0,0-.467,1.474l6.937,2.2.022.007a3.034,3.034,0,0,0,2.32-.27,3.031,3.031,0,0,0,1.45-1.831q.027-.094.047-.188l5.8-1.608c.838-.286,1.938-.389,2.428.739C34.627,318.394,33.309,319.123,32.966,319.286Z" transform="translate(0 -309.922)"/></g><g transform="translate(2.295 0.023)"><g transform="translate(0 0)"><path class="b" d="M66.2,2.641H61.6a.773.773,0,0,0-.773.773v.667H58.674a.773.773,0,0,0-.773.773v.222a5.48,5.48,0,0,1-2.823-1.013,46.772,46.772,0,0,0-4.644-2.371L50.4,1.678a6.576,6.576,0,0,0-5.047.079l-3.11,1.114L39.621.25a.773.773,0,0,0-1.093,0L29.92,8.857a.767.767,0,0,0,0,1.093L44.628,24.659a.835.835,0,0,0,1.093,0L53.58,16.8c.2.018.416.027.636.027a6.181,6.181,0,0,0,4.828-2.9H66.2a.773.773,0,0,0,.773-.773V3.414A.773.773,0,0,0,66.2,2.641ZM39.074,1.889l1.762,1.762a3.37,3.37,0,0,1-3.523,0Zm-5.752,9.276L31.56,9.4l1.762-1.762a3.37,3.37,0,0,1,0,3.524ZM45.175,23.019l-1.761-1.761a3.365,3.365,0,0,1,3.523,0Zm2.875-2.875a4.912,4.912,0,0,0-5.75,0l-7.865-7.865a4.912,4.912,0,0,0,0-5.751L36.2,4.765a4.912,4.912,0,0,0,5.751,0l1.672,1.672a3.064,3.064,0,0,0-2.3,1.685,4.405,4.405,0,1,0,5.065,5.454l2.61.886a4.935,4.935,0,0,0,.819,3.917Zm-4.7-7.6.02.007,1.546.525A2.86,2.86,0,1,1,41.034,9.81,3.422,3.422,0,0,0,43.351,12.545Zm7.578,4.72a3.381,3.381,0,0,1-.494-1.607A6.01,6.01,0,0,0,51.8,16.4ZM57.9,12.851a4.773,4.773,0,0,1-3.685,2.43,5.626,5.626,0,0,1-.806-.057h0a4.427,4.427,0,0,1-2.863-1.567c-.016-.023-.083-.111-.093-.126a.77.77,0,0,0-.426-.354l-6.146-2.086a1.735,1.735,0,0,1-1.262-2.045v0a1.506,1.506,0,0,1,1.85-1.037L51.393,10.2a.773.773,0,1,0,.467-1.474L46.352,6.981,46.3,6.933h0L43.451,4.08,45.9,3.2l.027-.01.008,0,.031-.013a5.009,5.009,0,0,1,3.849-.066A44.775,44.775,0,0,1,54.306,5.4a6.956,6.956,0,0,0,3.6,1.223Zm2.928-.465H59.447V5.627h1.382Zm4.6,0h-3.05v-8.2h3.05Z" transform="translate(-29.691 -0.023)"/></g></g></g></g></svg>