<svg xmlns="http://www.w3.org/2000/svg" width="14.693" height="14.715" viewBox="0 0 14.693 14.715">
  <g id="phone-call" transform="translate(0 0)">
    <g id="Group_4437" data-name="Group 4437" transform="translate(0 0)">
      <path id="Path_12819" data-name="Path 12819" d="M11.963,35.67a1.447,1.447,0,0,0-1.05-.481,1.5,1.5,0,0,0-1.062.478l-.981.978c-.081-.043-.161-.084-.239-.124-.112-.056-.217-.109-.307-.165a10.666,10.666,0,0,1-2.556-2.329A6.293,6.293,0,0,1,4.929,32.7c.255-.233.491-.475.721-.708.087-.087.174-.177.261-.264a1.425,1.425,0,0,0,0-2.149l-.848-.848c-.1-.1-.2-.2-.289-.3-.186-.193-.382-.391-.584-.578a1.47,1.47,0,0,0-1.04-.457,1.521,1.521,0,0,0-1.056.457l-.006.006L1.031,28.934a2.272,2.272,0,0,0-.674,1.444,5.444,5.444,0,0,0,.4,2.3,13.372,13.372,0,0,0,2.376,3.963A14.615,14.615,0,0,0,8,40.456a7.582,7.582,0,0,0,2.733.807c.065,0,.134.006.2.006a2.34,2.34,0,0,0,1.792-.77c0-.006.009-.009.012-.016a7.061,7.061,0,0,1,.543-.562c.134-.127.27-.261.4-.4a1.549,1.549,0,0,0,.469-1.075,1.493,1.493,0,0,0-.478-1.065Zm1.112,3.27s0,0,0,0c-.121.13-.245.248-.379.379a8.166,8.166,0,0,0-.6.621,1.5,1.5,0,0,1-1.168.494c-.047,0-.1,0-.143,0A6.736,6.736,0,0,1,8.364,39.7a13.8,13.8,0,0,1-4.584-3.59,12.609,12.609,0,0,1-2.236-3.724A4.434,4.434,0,0,1,1.2,30.446a1.426,1.426,0,0,1,.429-.922l1.059-1.059a.706.706,0,0,1,.472-.221.664.664,0,0,1,.453.217l.009.009c.189.177.37.36.559.556.1.1.2.2.3.3l.848.848a.593.593,0,0,1,0,.963c-.09.09-.177.18-.267.267-.261.267-.509.516-.78.758-.006.006-.012.009-.016.016a.633.633,0,0,0-.161.7l.009.028a6.807,6.807,0,0,0,1,1.637l0,0A11.4,11.4,0,0,0,7.87,37.062a4.239,4.239,0,0,0,.382.208c.112.056.217.109.307.165.012.006.025.016.037.022a.673.673,0,0,0,.307.078.664.664,0,0,0,.472-.214l1.062-1.062a.7.7,0,0,1,.469-.233.633.633,0,0,1,.447.227l.006.006,1.711,1.711A.614.614,0,0,1,13.075,38.941Z" transform="translate(-0.344 -26.555)" fill="#3b3e40"/>
      <path id="Path_12820" data-name="Path 12820" d="M245.289,86.757a4,4,0,0,1,3.255,3.255.417.417,0,0,0,.413.348.554.554,0,0,0,.071-.006.42.42,0,0,0,.345-.484,4.833,4.833,0,0,0-3.938-3.938.421.421,0,0,0-.484.342A.415.415,0,0,0,245.289,86.757Z" transform="translate(-237.347 -83.257)" fill="#3b3e40"/>
      <path id="Path_12821" data-name="Path 12821" d="M255.747,6.491A7.958,7.958,0,0,0,249.262.007a.419.419,0,1,0-.137.826,7.108,7.108,0,0,1,5.8,5.8.417.417,0,0,0,.413.348.554.554,0,0,0,.071-.006A.411.411,0,0,0,255.747,6.491Z" transform="translate(-241.06 0)" fill="#3b3e40"/>
    </g>
  </g>
</svg>
