<svg xmlns="http://www.w3.org/2000/svg" width="42.3" height="55.532" viewBox="0 0 42.3 55.532">
  <g id="insurance" transform="translate(-61)">
    <path id="Path_12875" data-name="Path 12875" d="M90.284,0H66.965A5.972,5.972,0,0,0,61,5.965v43.6a5.972,5.972,0,0,0,5.965,5.965H97.334a5.972,5.972,0,0,0,5.965-5.965V13.015Z" fill="#eecac7"/>
    <g id="Group_4501" data-name="Group 4501" transform="translate(73.544 18.447)">
      <path id="Path_12877" data-name="Path 12877" d="M149.605,183.7a1.122,1.122,0,0,1-.323-.047A11.622,11.622,0,0,1,141,172.521v-6.405a1.122,1.122,0,0,1,1.122-1.122,3.7,3.7,0,0,0,3.328-2.057l.158-.316a1.122,1.122,0,0,1,1-.621H152.6a1.122,1.122,0,0,1,1,.62l.158.316a3.7,3.7,0,0,0,3.328,2.057,1.122,1.122,0,0,1,1.122,1.122v6.405a11.622,11.622,0,0,1-8.283,11.132A1.122,1.122,0,0,1,149.605,183.7Z" transform="translate(-141 -162)" fill="#c7222a"/>
      <path id="Path_12879" data-name="Path 12879" d="M171,194.889v5.387a9.317,9.317,0,0,0,6.361,8.879,9.317,9.317,0,0,0,6.361-8.879v-5.387a5.922,5.922,0,0,1-4.05-2.889H175.05A5.922,5.922,0,0,1,171,194.889Z" transform="translate(-168.755 -189.755)" fill="#f5f5ff"/>
      <path id="Path_12880" data-name="Path 12880" d="M258.31,192H256v17.155a9.317,9.317,0,0,0,6.361-8.879v-5.387A5.922,5.922,0,0,1,258.31,192Z" transform="translate(-247.395 -189.755)" fill="#e2e7fa"/>
      <path id="Path_12881" data-name="Path 12881" d="M201.813,270.193a1.118,1.118,0,0,1-.794-.329l-2.116-2.116a1.122,1.122,0,0,1,1.587-1.587l1.323,1.323,3.439-3.439a1.122,1.122,0,0,1,1.587,1.587l-4.233,4.233A1.119,1.119,0,0,1,201.813,270.193Z" transform="translate(-194.266 -256.104)" fill="#c7222a"/>
    </g>
    <path id="Path_12883" data-name="Path 12883" d="M331,0V11.388a1.627,1.627,0,0,0,1.627,1.627h11.388Z" transform="translate(-240.716)" fill="#eea7a1"/>
  </g>
</svg>
