<svg xmlns="http://www.w3.org/2000/svg" width="40" height="40" viewBox="0 0 40 40"><defs><style>.a{fill:none;}.b,.c{fill:#f7a501;stroke:#f7a501;}.b{stroke-width:0.3px;}.c{stroke-width:0.5px;}</style></defs><g transform="translate(0 8)"><rect class="a" width="40" height="40" transform="translate(0 -8)"/><g transform="translate(-5.702 -9.788)"><path class="b" d="M39.837,41.576H11.565A.565.565,0,0,1,11,41.011V2.565A.565.565,0,0,1,11.565,2H30.794a.565.565,0,0,1,.4.165l9.046,9.041a.565.565,0,0,1,.166.4V41.011a.565.565,0,0,1-.568.565ZM12.131,40.445H39.274V11.84l-8.718-8.71H12.131Z"/><path class="b" d="M54.616,12.182H45.57a.565.565,0,0,1-.565-.565V2.565a.565.565,0,0,1,1.131,0v8.486h8.481a.565.565,0,1,1,0,1.131Z" transform="translate(-14.779 0)"/><path class="b" d="M38.921,36.881H18.57a.565.565,0,1,1,0-1.131H38.921a.565.565,0,0,1,0,1.131Z" transform="translate(-3.045 -14.669)"/><path class="b" d="M38.921,28.965H18.57a.565.565,0,1,1,0-1.131H38.921a.565.565,0,0,1,0,1.131Z" transform="translate(-3.045 -11.228)"/><path class="b" d="M30.44,21.05H18.57a.565.565,0,1,1,0-1.131H30.44a.565.565,0,1,1,0,1.131Z" transform="translate(-3.045 -7.788)"/><path class="b" d="M30.44,13.131H18.57a.565.565,0,1,1,0-1.131H30.44a.565.565,0,1,1,0,1.131Z" transform="translate(-3.045 -4.346)"/></g><path class="c" d="M4.934,0A4.934,4.934,0,1,0,9.868,4.935,4.94,4.94,0,0,0,4.934,0Zm0,.687A4.226,4.226,0,0,1,7.6,1.631L1.63,7.6A4.244,4.244,0,0,1,4.934.688Zm0,8.494A4.23,4.23,0,0,1,2.1,8.1L8.1,2.1A4.245,4.245,0,0,1,4.934,9.182Z" transform="translate(15.064 16.792)"/></g></svg>