<svg xmlns="http://www.w3.org/2000/svg" width="50.2" height="50.101" viewBox="0 0 50.2 50.101"><defs><style>.a{fill:none;}.b{fill:#f7a501;stroke:#f7a501;stroke-width:0.2px;}</style></defs><g transform="translate(48.1 64.57)"><rect class="a" width="50" height="50" transform="translate(-48 -64.471)"/><g transform="translate(-48.529 -345.066)"><path class="b" d="M3.024,280.6a2.508,2.508,0,0,0-2.5,2.5V328a2.508,2.508,0,0,0,2.5,2.5h31.6a2.508,2.508,0,0,0,2.5-2.5v-4.446a.832.832,0,1,0-1.663,0V328a.812.812,0,0,1-.832.832H3.024A.812.812,0,0,1,2.193,328V283.091a.812.812,0,0,1,.832-.832H28.808v4.16a2.5,2.5,0,0,0,2.492,2.492h4.16v16.92a.832.832,0,1,0,1.663,0v-17.75a.832.832,0,0,0-.244-.588l-6.654-6.654a.832.832,0,0,0-.588-.244Zm27.447,2.841,3.811,3.811H31.3a.807.807,0,0,1-.828-.828Zm-19.13,3.811a.832.832,0,1,0,0,1.663h13.3a.832.832,0,1,0,0-1.663ZM6.349,292.24a.832.832,0,1,0,0,1.663h18.3a.832.832,0,1,0,0-1.663Zm21.624,0a.832.832,0,1,0,0,1.663H31.3a.832.832,0,1,0,0-1.663ZM6.349,298.895H31.3a.832.832,0,1,0,0-1.663H6.31a.832.832,0,0,0,.04,1.663Zm41.589,1.566a2.586,2.586,0,0,0-1.836.754l-1.629,1.629a2.016,2.016,0,0,0-2.117.453L27.39,318.264a.833.833,0,0,0-.216.362l-1.663,5.82a.832.832,0,0,0,1.031,1.031l5.82-1.663a.832.832,0,0,0,.356-.214L47.1,309.221l.141.141a1.64,1.64,0,0,1,0,2.35l-4.059,4.059a.832.832,0,1,0,1.179,1.173l4.058-4.059a3.335,3.335,0,0,0,0-4.7l-.276-.276a2.042,2.042,0,0,0,0-1.392l1.628-1.628a2.59,2.59,0,0,0-1.836-4.426Zm0,1.652a.929.929,0,0,1,.66.281.915.915,0,0,1,0,1.321L47.1,305.2l-1.322-1.317,1.494-1.49a.929.929,0,0,1,.66-.281ZM6.349,303.887H9.678a.833.833,0,0,0,0-1.665H6.31a.833.833,0,1,0,.04,1.665Zm24.951,0a.833.833,0,0,0,0-1.665H12.961A.833.833,0,1,0,13,303.887Zm12.479.474a.342.342,0,0,1,.242.109l2.493,2.5a.323.323,0,0,1,0,.484l-8.557,8.561-2.984-2.981,8.564-8.562a.342.342,0,0,1,.242-.109ZM6.349,307.207a.832.832,0,1,0,0,1.663H31.3a.832.832,0,1,0,0-1.663Zm0,4.992a.832.832,0,1,0,0,1.663H18a.832.832,0,1,0,0-1.663Zm14.975,0a.832.832,0,1,0,0,1.663h3.32a.832.832,0,1,0,0-1.663ZM33.8,314.21l2.981,2.982-4.646,4.649-2.981-2.987Zm-5.409,6.231,2.16,2.16-3.023.863Zm-10.256,1.667a6.628,6.628,0,0,0-3.057,1.025c-1.9,1.138-2.942.891-3.64.5a2.7,2.7,0,0,1-1.014-.994.832.832,0,1,0-1.486.742,4.388,4.388,0,0,0,1.689,1.707c1.173.652,3.043.822,5.3-.534,1.9-1.138,2.944-.891,3.642-.5a2.639,2.639,0,0,1,1.005,1,.834.834,0,0,0,1.493-.744,4.425,4.425,0,0,0-1.694-1.706,4.153,4.153,0,0,0-2.242-.492Z" transform="translate(0)"/></g></g></svg>