<svg xmlns="http://www.w3.org/2000/svg" width="40.621" height="40.062" viewBox="0 0 40.621 40.062">
  <g id="Group_4706" data-name="Group 4706" transform="translate(-558.073 -693.474)">
    <rect id="Rectangle_3860" data-name="Rectangle 3860" width="33" height="11" transform="translate(565 694)" fill="#fe9923"/>
    <g id="noun_invoice_3233516" transform="translate(558.572 694)">
      <g id="Group_4714" data-name="Group 4714">
        <g id="Group_4707" data-name="Group 4707" transform="translate(0 0.005)">
          <g id="Group_4706-2" data-name="Group 4706">
            <path id="Path_12926" data-name="Path 12926" d="M128.769,113.556v22.96c0,.31-.014.625,0,.935v.038c.119-.205.238-.41.353-.62q-2.368,1.674-4.735,3.343l-.672.472h.72q-2.368-1.674-4.735-3.343l-.672-.472a.7.7,0,0,0-.72,0q-2.367,1.674-4.735,3.343l-.672.472h.72q-2.367-1.674-4.735-3.343l-.672-.472a.7.7,0,0,0-.72,0q-2.368,1.674-4.735,3.343l-.672.472h.72q-2.367-1.674-4.735-3.343l-.672-.472c.119.205.238.41.353.62V106.513c0-.067,0-.134.01-.2,0-.01.014-.119,0-.033s.01-.052.014-.067a2.462,2.462,0,0,1,.1-.367c.014-.033.1-.219.033-.091.033-.067.062-.134.1-.2a3.523,3.523,0,0,1,.2-.315c.048-.067-.01.014-.019.024a.828.828,0,0,1,.062-.072c.048-.052.1-.1.148-.157s.1-.1.162-.143-.014.01-.024.014a.431.431,0,0,1,.076-.052,2.8,2.8,0,0,1,.348-.21c.043-.019.172-.076.057-.033.067-.029.138-.052.21-.076a2.945,2.945,0,0,1,.405-.1c-.124.024.019,0,.067,0,.067,0,.134,0,.2,0a2.6,2.6,0,0,1,.272.014c.086.01.019,0,0,0l.148.029a1.912,1.912,0,0,1,.787.329c.024.014.162.119.091.062.057.048.11.1.167.143s.1.1.153.157c.024.029.048.057.072.081.076.091-.048-.067.024.029a3.2,3.2,0,0,1,.243.41s.048.11.024.052.019.052.019.052a2.213,2.213,0,0,1,.076.253c.019.072.033.148.048.224s0,.019,0,0c0,.052.01.1.014.153s0,.11,0,.167V112.3a2,2,0,0,0,.477,1.307,1.973,1.973,0,0,0,1.545.649h25.4a.715.715,0,1,0,0-1.431H105.452c-.5,0-1-.014-1.5,0-.186,0,.057.024-.038,0-.043-.01-.224-.067-.1-.014-.043-.019-.229-.134-.114-.048a1.119,1.119,0,0,1-.153-.148c-.052-.062.014.014.019.024-.019-.033-.043-.072-.062-.1-.057-.1,0,.057-.019-.062,0-.043-.024-.081-.029-.124.01.072.01.062.01,0,0-.129,0-.253,0-.381v-4.706a5.068,5.068,0,0,0-.353-2.222,3.575,3.575,0,0,0-6.7.706,8.141,8.141,0,0,0-.1,1.8v29.464c0,.148-.01.3,0,.448a.837.837,0,0,0,.4.668c.153.11.31.219.463.329q1.988,1.4,3.972,2.8l.925.653a.7.7,0,0,0,.72,0q2.368-1.674,4.735-3.343l.672-.472h-.72q2.367,1.674,4.735,3.343l.672.472a.7.7,0,0,0,.72,0q2.368-1.674,4.735-3.343l.672-.472h-.72q2.367,1.674,4.735,3.343l.672.472a.7.7,0,0,0,.72,0q2.632-1.86,5.264-3.715a.922.922,0,0,0,.482-.62c.01-.062.01-.1.014-.162,0-.172,0-.343,0-.515V118.167c0-1.516.033-3.042,0-4.559v-.067a.724.724,0,0,0-.715-.715A.75.75,0,0,0,128.769,113.556Z" transform="translate(-96.311 -103.018)" fill="#ec6155" stroke="#fc3" stroke-width="1"/>
          </g>
        </g>
        <g id="Group_4709" data-name="Group 4709" transform="translate(2.893)">
          <g id="Group_4708" data-name="Group 4708">
            <path id="Path_12927" data-name="Path 12927" d="M192.272,106.492v4.954c0,.262,0,.52,0,.782v.033c0,.134,0,.043.01,0a1.166,1.166,0,0,1-.029.124c-.024.176.038-.057,0,.033a1.208,1.208,0,0,1-.076.134c.067-.114-.048.048-.086.086-.129.129.067-.038-.024.014a1.214,1.214,0,0,1-.11.057c-.1.048.1-.024,0,0-.052.01-.1.029-.153.038.038,0,.129,0,0-.01-.167,0-.329,0-.5,0H161.911c-.048,0-.1,0-.153,0h-.072c.138,0,.014,0-.029-.01-.019,0-.148-.043-.062-.014s-.033-.019-.052-.029-.148-.1-.033-.01a1.133,1.133,0,0,1-.11-.1c-.014-.014-.091-.114-.043-.048s-.019-.038-.029-.057c-.019-.038-.052-.157-.014-.029-.01-.038-.024-.081-.033-.119-.033-.129-.01.067,0-.067v-.019c.029-.7,0-1.411,0-2.112v-3.634a3.637,3.637,0,0,0-1-2.48,3.679,3.679,0,0,0-2.585-1.092v1.43h32.43c.057,0,.11,0,.167,0,.029,0,.2.019.134.01s.124.024.157.033l.215.057c.072.024.138.048.21.076-.114-.048.014.01.057.033a3,3,0,0,1,.372.229c.11.076-.048-.048.048.043.043.043.091.081.138.124s.1.1.148.157a.833.833,0,0,0,.062.072c-.043-.052-.033-.052,0,0a3.149,3.149,0,0,1,.21.343c.014.024.086.176.057.114s.043.124.052.148c.038.124.067.248.1.372,0,.01.019.114,0,.033s0,.048,0,.067c0,.072.01.148.01.224a.715.715,0,1,0,1.431,0,3.616,3.616,0,0,0-1.888-3.152,3.753,3.753,0,0,0-1.769-.424H159.222c-.486,0-.973-.01-1.459,0H157.7a.715.715,0,0,0,0,1.43,2.167,2.167,0,0,1,1.817,1c.057.1.11.191.157.291s-.029-.081.014.033c.019.048.033.1.048.143q.05.165.086.329c0,.014.019.138.01.038a1.914,1.914,0,0,1,.014.234v5.531a2.642,2.642,0,0,0,.181,1.116,1.922,1.922,0,0,0,1.736,1.111c.663.014,1.326,0,1.984,0h27.986a1.944,1.944,0,0,0,1.974-1.941c.014-1.736,0-3.471,0-5.207V106.5a.718.718,0,0,0-1.435,0Z" transform="translate(-156.985 -102.911)" fill="#ec6155" stroke="#fc3" stroke-width="1"/>
          </g>
        </g>
        <g id="Group_4711" data-name="Group 4711" transform="translate(6.136 17.825)">
          <g id="Group_4710" data-name="Group 4710">
            <path id="Path_12928" data-name="Path 12928" d="M225.7,478.177H243.43c.815,0,1.64.029,2.456,0h.033a.715.715,0,0,0,0-1.431H228.19c-.815,0-1.64-.029-2.456,0H225.7a.715.715,0,0,0,0,1.431Z" transform="translate(-224.985 -476.733)" fill="#ec6155" stroke="#d55145" stroke-width="1"/>
          </g>
        </g>
        <g id="Group_4713" data-name="Group 4713" transform="translate(6.136 24.895)">
          <g id="Group_4712" data-name="Group 4712" transform="translate(0)">
            <path id="Path_12929" data-name="Path 12929" d="M225.7,626.431h13.156a.715.715,0,0,0,0-1.431H225.7a.715.715,0,0,0,0,1.431Z" transform="translate(-224.985 -625)" fill="#ec6155" stroke="#ec6155" stroke-width="1"/>
          </g>
        </g>
      </g>
    </g>
  </g>
</svg>
