<svg xmlns="http://www.w3.org/2000/svg" width="40" height="39.896" viewBox="0 0 40 39.896"><defs><style>.a{fill:none;}.b{fill:#f7a501;}</style></defs><g transform="translate(0.194 0.071)"><rect class="a" width="39.805" height="39.831" transform="translate(-0.194 -0.071)"/><g transform="translate(0.001 0.001)"><path class="b" d="M32.224,309.8l-4.286,2.836a3.135,3.135,0,0,0-2.7-1.546H21.455c-.815,0-1.2-.592-1.579-.867a7.868,7.868,0,0,0-10.261,0l-.826.713H.778a.778.778,0,0,0-.777.778v9.335a.778.778,0,0,0,.777.778H8.85l13.93,2.323a.776.776,0,0,0,.586-.139l16.121-11.753a.779.779,0,0,0,.172-1.084,5.474,5.474,0,0,0-7.435-1.372Zm-9.51,12.76-13.672-2.28a.783.783,0,0,0-.128-.011H1.556v-7.779H9.078c.472,0,.606-.335,1.554-1.092a6.306,6.306,0,0,1,8.226,0,3.8,3.8,0,0,0,2.6,1.247H25.24a1.517,1.517,0,1,1,0,3.034H15.911a.778.778,0,0,0,0,1.556H25.24a3.1,3.1,0,0,0,3.109-3.006l4.727-3.128a3.926,3.926,0,0,1,4.807.4Zm0,0" transform="translate(-0.001 -284.334)"/><path class="b" d="M307.547,186.716a.777.777,0,1,1-.777-.778A.778.778,0,0,1,307.547,186.716Zm0,0" transform="translate(-282.203 -171.473)"/><path class="b" d="M158.542,19.132H177.2a.778.778,0,0,0,.777-.778V15.318l2.354-12.057a.778.778,0,0,0-1.194-.8L172.788,6.7,168.554.347a.777.777,0,0,0-1.294,0L163.027,6.7l-6.35-4.236a.777.777,0,0,0-1.2.792l2.282,12.059v3.039a.778.778,0,0,0,.777.778Zm4.27-10.705a.777.777,0,0,0,1.078-.216l4.018-6.03,4.018,6.03A.777.777,0,0,0,173,8.427l5.445-3.632-1.888,9.67h-5.113a.778.778,0,0,0,0,1.556h4.976v1.556h-17.1V16.021h5.131a.778.778,0,0,0,0-1.556h-5.264l-1.832-9.679Zm0,0" transform="translate(-143.383 -0.001)"/></g></g></svg>