<svg xmlns="http://www.w3.org/2000/svg" width="28.326" height="28.326" viewBox="0 0 28.326 28.326">
  <g id="Group_921" data-name="Group 921" transform="translate(-368.633 -314.633)">
    <g id="noun_tick_3325465" transform="translate(363.633 308.633)">
      <g id="Group_990" data-name="Group 990" transform="translate(5 6)">
        <path id="Path_594" data-name="Path 594" d="M20.163,6A14.163,14.163,0,1,0,34.326,20.163,14.163,14.163,0,0,0,20.163,6Zm0,26.147A11.984,11.984,0,1,1,32.147,20.163,11.984,11.984,0,0,1,20.163,32.147ZM27.244,15.5a1.089,1.089,0,0,1,.044,1.536l-7.125,7.528a2.724,2.724,0,0,1-1.977.85h-.093a2.724,2.724,0,0,1-2-.948l-3.072-3.573a1.089,1.089,0,1,1,1.634-1.422l3.072,3.573a.548.548,0,0,0,.812.022l7.136-7.528a1.089,1.089,0,0,1,1.569-.038Z" transform="translate(-6 -6)" fill="#c7222a"/>
      </g>
    </g>
  </g>
</svg>
