<svg xmlns="http://www.w3.org/2000/svg" width="18.199" height="15.053" viewBox="0 0 18.199 15.053">
  <g id="Group_4805" data-name="Group 4805" transform="translate(-10 -16.5)">
    <path id="Path_12947" data-name="Path 12947" d="M40.436,25a.9.9,0,0,0,0,1.8.7.7,0,0,1,.7.7V33.74a.7.7,0,0,1-.7.7H32.078l.382-.382a.906.906,0,1,0-1.281-1.281l-1.91,1.91a.9.9,0,0,0,0,1.281l1.91,1.91a.9.9,0,0,0,1.258-1.281l-.359-.359h8.358A2.5,2.5,0,0,0,42.93,33.74V27.494A2.5,2.5,0,0,0,40.436,25Z" transform="translate(-14.731 -6.59)" fill="#c7222a"/>
    <path id="Path_12948" data-name="Path 12948" d="M12.494,29.644a.9.9,0,1,0,0-1.8.7.7,0,0,1-.7-.7V20.9a.7.7,0,0,1,.7-.7H20.74l-.382.382a.9.9,0,1,0,1.258,1.281l1.91-1.91a.9.9,0,0,0,0-1.281l-1.91-1.91a.906.906,0,0,0-1.281,1.281l.382.382H12.494A2.469,2.469,0,0,0,10,20.9V27.15A2.5,2.5,0,0,0,12.494,29.644Z" fill="#c7222a"/>
  </g>
</svg>
