<svg xmlns="http://www.w3.org/2000/svg" width="17" height="17" viewBox="0 0 17 17">
  <path id="Path_12843" data-name="Path 12843" d="M34.469,19.063H31.812v-.531A.531.531,0,0,0,31.281,18H21.719a.531.531,0,0,0-.531.531v.531H18.531a.531.531,0,0,0-.531.531v3.719c0,1.913,1.424,3.188,3.634,3.188a5.313,5.313,0,0,0,4.25,3.188l-.436,4.25h-3.2a.531.531,0,0,0,0,1.063h8.5a.531.531,0,0,0,0-1.062H27.563l-.436-4.25a5.312,5.312,0,0,0,4.25-3.187c2.3,0,3.623-1.147,3.623-3.187V19.594A.531.531,0,0,0,34.469,19.063Zm-15.406,4.25V20.125h2.125v4.25a5.573,5.573,0,0,0,.106,1.063C19.891,25.321,19.063,24.556,19.063,23.313ZM30.75,24.375a4.25,4.25,0,1,1-8.5,0V19.063h8.5Zm3.188-1.062c0,1.3-.754,2-2.231,2.125a5.531,5.531,0,0,0,.106-1.062v-4.25h2.125Z" transform="translate(-18 -18)"/>
</svg>
