<svg xmlns="http://www.w3.org/2000/svg" width="45.563" height="45.563" viewBox="0 0 45.563 45.563">
  <path id="Path_12843" data-name="Path 12843" d="M62.14,20.848H55.02V19.424A1.424,1.424,0,0,0,53.6,18H27.967a1.424,1.424,0,0,0-1.424,1.424v1.424H19.424A1.424,1.424,0,0,0,18,22.272v9.967c0,5.126,3.816,8.543,9.739,8.543A14.239,14.239,0,0,0,39.13,49.325L37.963,60.716H29.391a1.424,1.424,0,1,0,0,2.848H52.173a1.424,1.424,0,1,0,0-2.848H43.629L42.461,49.325a14.238,14.238,0,0,0,11.391-8.543c6.152,0,9.711-3.076,9.711-8.543V22.272A1.424,1.424,0,0,0,62.14,20.848ZM20.848,32.239V23.7h5.7V35.086a14.938,14.938,0,0,0,.285,2.848C23.069,37.621,20.848,35.57,20.848,32.239Zm31.325,2.848a11.391,11.391,0,1,1-22.782,0V20.848H52.173Zm8.543-2.848c0,3.474-2.022,5.354-5.98,5.7a14.823,14.823,0,0,0,.285-2.848V23.7h5.7Z" transform="translate(-18 -18)" fill="#c7222a"/>
</svg>
