<svg xmlns="http://www.w3.org/2000/svg" width="13.935" height="13.329" viewBox="0 0 13.935 13.329">
  <g id="Group_4991" data-name="Group 4991" transform="translate(-4 -958.362)">
    <path id="Path_12955" data-name="Path 12955" d="M7.791,958.362a.454.454,0,0,0-.454.454v1.747a1.363,1.363,0,1,0,.909,0v-1.747A.454.454,0,0,0,7.791,958.362Zm6.362,0a.454.454,0,0,0-.454.454v1.747a1.363,1.363,0,1,0,.909,0v-1.747A.454.454,0,0,0,14.153,958.362Zm-8.482.909A1.677,1.677,0,0,0,4,960.942v9.079a1.677,1.677,0,0,0,1.671,1.671H16.264a1.678,1.678,0,0,0,1.671-1.671v-9.079a1.677,1.677,0,0,0-1.671-1.671h-.9a.454.454,0,1,0,0,.909h.9a.753.753,0,0,1,.762.762v2.57H4.909v-2.57a.752.752,0,0,1,.762-.762h.9a.454.454,0,1,0,0-.909Zm3.328,0a.454.454,0,0,0,0,.909h3.938a.454.454,0,0,0,0-.909Zm-1.207,2.12a.454.454,0,1,1-.454.454A.448.448,0,0,1,7.791,961.391Zm6.362,0a.454.454,0,1,1-.454.454A.448.448,0,0,1,14.153,961.391Zm-9.244,3.029H17.026v5.6a.752.752,0,0,1-.762.762H5.671a.752.752,0,0,1-.762-.762Z"/>
  </g>
</svg>
