<svg xmlns="http://www.w3.org/2000/svg" width="43.225" height="56.568" viewBox="0 0 43.225 56.568">
  <g id="price-tag" transform="translate(-59.501 0.001)">
    <path id="Path_12897" data-name="Path 12897" d="M79.964,104.5l-8.189,3.989a3.545,3.545,0,0,0-1.653,1.739l-10.216,25.61a4.736,4.736,0,0,0,2.406,6.244l10.161,4.5H80.02Z" transform="translate(0 -92.784)" fill="#eea7a1"/>
    <path id="Path_12898" data-name="Path 12898" d="M201.723,134.932v4.934a5.1,5.1,0,0,1-5.046,5.046H175.934A5,5,0,0,1,171,139.866V110.825a3.628,3.628,0,0,1,.8-2.356l6.237-7.557a3.7,3.7,0,0,1,2.833-1.412h10.876a3.7,3.7,0,0,1,2.833,1.412l6.237,7.557a3.738,3.738,0,0,1,.909,2.356v24.107Z" transform="translate(-98.997 -88.344)" fill="#eecac7"/>
    <g id="Group_4504" data-name="Group 4504" transform="translate(79.094 28.95)">
      <path id="Path_12899" data-name="Path 12899" d="M240.771,265.216h0l-.029-.029-.046-.046-1.16-1.161-.165.328a3.628,3.628,0,0,0-1.227-.213h-.112a3.642,3.642,0,0,0-3.444,4.833l-.341.175,1.2,1.2.015.015.016.016h0a3.631,3.631,0,0,0,2.551,1.046h.112a3.641,3.641,0,0,0,2.627-6.166Zm-2.627,4.484h-.112a1.962,1.962,0,0,1,0-3.924h.112a1.962,1.962,0,1,1,0,3.924Z" transform="translate(-234.247 -263.331)" fill="#eea7a1" fill-rule="evenodd"/>
      <path id="Path_12900" data-name="Path 12900" d="M254.359,259.318l-1.121-1.121L237.7,273.738l1.121,1.121a.841.841,0,0,0,1.189,0l14.352-14.352A.841.841,0,0,0,254.359,259.318Z" transform="translate(-237.309 -258.197)" fill="#eea7a1" fill-rule="evenodd"/>
      <path id="Path_12901" data-name="Path 12901" d="M338.809,344.508h0l-.928-.94.06.381a3.622,3.622,0,0,0-1.519-.333h-.112a3.642,3.642,0,0,0-3.338,5.1l-.412-.06,1.116,1.114q.06.063.122.122l.026.026h0a3.63,3.63,0,0,0,2.485.982h.112a3.642,3.642,0,0,0,2.385-6.4Zm-2.385,4.714h-.112a1.962,1.962,0,0,1,0-3.924h.112a1.962,1.962,0,0,1,0,3.924Z" transform="translate(-321.538 -333.995)" fill="#eea7a1" fill-rule="evenodd"/>
    </g>
    <g id="Group_4505" data-name="Group 4505" transform="translate(78.114 28.592)">
      <path id="Path_12902" data-name="Path 12902" d="M236.34,272.034a.841.841,0,0,1-.595-1.436L250.1,256.247a.841.841,0,0,1,1.189,1.189l-14.352,14.352A.838.838,0,0,1,236.34,272.034Z" transform="translate(-234.378 -255.888)" fill="#c7222a"/>
      <path id="Path_12903" data-name="Path 12903" d="M229.256,262.288h-.112a3.644,3.644,0,0,1,0-7.288h.112a3.644,3.644,0,0,1,0,7.288Zm-.112-5.606a1.962,1.962,0,0,0,0,3.924h.112a1.962,1.962,0,0,0,0-3.924Z" transform="translate(-225.5 -255)" fill="#c7222a"/>
      <path id="Path_12904" data-name="Path 12904" d="M327.256,341.288h-.112a3.644,3.644,0,1,1,0-7.288h.112a3.644,3.644,0,1,1,0,7.288Zm-.112-5.606a1.962,1.962,0,1,0,0,3.924h.112a1.962,1.962,0,0,0,0-3.924Z" transform="translate(-312.512 -325.142)" fill="#c7222a"/>
    </g>
    <path id="Path_12905" data-name="Path 12905" d="M317.143,17.995a.841.841,0,0,1-.233-1.649c.1-.028.191-.058.285-.09a6.335,6.335,0,0,0,4.287-6V.84a.841.841,0,1,1,1.682,0v9.419a8.016,8.016,0,0,1-5.426,7.589c-.119.041-.24.079-.361.114A.838.838,0,0,1,317.143,17.995Z" transform="translate(-228.007)" fill="#c7222a"/>
    <path id="Path_12906" data-name="Path 12906" d="M287.135,137.27a2.635,2.635,0,1,1,2.635-2.635A2.638,2.638,0,0,1,287.135,137.27Z" transform="translate(-199.771 -117.2)" fill="#f5f5f5"/>
  </g>
</svg>
