<svg xmlns="http://www.w3.org/2000/svg" width="50" height="50" viewBox="0 0 50 50"><defs><style>.a{fill:none;}.b{fill:#f7a501;stroke:#f7a501;stroke-width:0.2px;}</style></defs><g transform="translate(-139.52 -604)"><rect class="a" width="50" height="50" transform="translate(139.52 604)"/><g transform="translate(-2.243 -6.639)"><path class="b" d="M29.7,48c-4.938-2.9-7.192-4.228-8.231-4.9L19.656,44.9a2.363,2.363,0,0,1-3.345,0L.693,29.28a2.363,2.363,0,0,1,0-3.345L23,3.624a4.5,4.5,0,0,1,3.321-1.183L36.3,3.474a4.733,4.733,0,1,1,7.9,4.612.789.789,0,1,1-1.115-1.117A3.156,3.156,0,1,0,37.9,3.638l1.462.154a2.817,2.817,0,0,1,2.313,1.9l.01.024c.343.73,1.368,3.255,5.062,12.806a4.5,4.5,0,0,1-.275,3.516l-6.7,11.613L32.95,47.091a2.3,2.3,0,0,1-.395.523A2.371,2.371,0,0,1,29.7,48ZM43.146,19.266a4.484,4.484,0,0,1-1.178,3.321L22.594,41.96c1.615.97,5.295,3.14,7.9,4.671a.789.789,0,0,0,1.074-.29L38.385,32.9l6.726-11.65a3.018,3.018,0,0,0,.171-2.163c-.88-2.267-1.978-5.1-2.93-7.518ZM24.118,4.737,1.807,27.051a.789.789,0,0,0,0,1.113L17.428,43.785a.787.787,0,0,0,1.112,0L40.851,21.474a3.017,3.017,0,0,0,.729-2.045L40.23,6.386A1.257,1.257,0,0,0,39.2,5.361l-1.459-.15a3.151,3.151,0,0,0,.88,1.758.79.79,0,1,1-1.116,1.117,4.7,4.7,0,0,1-1.368-3.042L26.165,4.011h-.071A3.041,3.041,0,0,0,24.118,4.737ZM21.232,31.3l-.066-.067a3.087,3.087,0,1,1,4.367-4.363l.067.066A3.087,3.087,0,0,1,21.232,31.3Zm.942-3.423a1.658,1.658,0,0,0,0,2.348l.065.069a1.663,1.663,0,0,0,2.353-2.351l-.067-.066a1.663,1.663,0,0,0-2.351,0ZM6.271,30.4,4.039,28.164a.787.787,0,0,1,0-1.113L7.388,23.7A.788.788,0,0,1,8.5,24.818L5.713,27.606,7.388,29.28A.789.789,0,0,1,6.271,30.4Zm7.811-6.544a.709.709,0,0,1-.712-.712.711.711,0,0,1,.712-.712H31.275a.712.712,0,0,1,0,1.424Zm5.878-4.437-.07-.065a3.088,3.088,0,0,1,4.367-4.367l.066.065a3.087,3.087,0,1,1-4.363,4.367Zm.938-3.426a1.663,1.663,0,0,0,0,2.352l.065.066a1.662,1.662,0,0,0,2.351-2.351l-.065-.067a1.663,1.663,0,0,0-2.351,0Z" transform="translate(143.271 611.483)"/></g></g></svg>