<svg id="Group_4862" data-name="Group 4862" xmlns="http://www.w3.org/2000/svg" width="15.393" height="18.324" viewBox="0 0 15.393 18.324">
  <path id="Path_12937" data-name="Path 12937" d="M24.26,5.733c-.019-.486-.019-.954-.019-1.4a.631.631,0,0,0-.636-.636,8.973,8.973,0,0,1-6.583-2.487.644.644,0,0,0-.9,0A8.871,8.871,0,0,1,9.56,3.676a.631.631,0,0,0-.636.636c0,.449,0,.916-.019,1.421-.094,4.62-.224,10.922,7.462,13.578a.8.8,0,0,0,.206.037.672.672,0,0,0,.206-.037C24.466,16.656,24.335,10.353,24.26,5.733ZM16.573,18.021c-6.583-2.394-6.49-7.631-6.4-12.25,0-.281.019-.542.019-.8a10.015,10.015,0,0,0,6.378-2.431,9.8,9.8,0,0,0,6.378,2.413c0,.262,0,.524.019.8C23.063,10.39,23.157,15.627,16.573,18.021Z" transform="translate(-8.883 -1.025)"/>
  <path id="Path_12938" data-name="Path 12938" d="M37.838,37.236l-3.086,3.086-1.328-1.328a.648.648,0,0,0-.916.916l1.777,1.777a.608.608,0,0,0,.449.187.58.58,0,0,0,.449-.187l3.553-3.553a.667.667,0,0,0,0-.916A.627.627,0,0,0,37.838,37.236Z" transform="translate(-27.941 -30.302)"/>
</svg>
