<svg xmlns="http://www.w3.org/2000/svg" width="42" height="42" viewBox="0 0 42 42">
  <g id="Group_4715" data-name="Group 4715" transform="translate(-501 -527)">
    <path id="Rectangle_3858" data-name="Rectangle 3858" d="M0,0H39a3,3,0,0,1,3,3V39a3,3,0,0,1-3,3H0a0,0,0,0,1,0,0V0A0,0,0,0,1,0,0Z" transform="translate(501 527)" fill="#e6e6e6"/>
    <g id="upload" transform="translate(514.102 544.091)">
      <path id="Expand_Less" d="M7.838,62.13a.746.746,0,0,1-1.045,0L.216,55.568A.738.738,0,1,1,1.26,54.526l6.057,6.04,6.056-6.041a.738.738,0,0,1,1.045,1.042Z" transform="translate(0 -54.309)"/>
    </g>
  </g>
</svg>
