<svg xmlns="http://www.w3.org/2000/svg" width="225.429" height="58.64" viewBox="0 0 225.429 58.64">
  <g id="Group_921" data-name="Group 921" transform="translate(-77.611 -387.442)">
    <g id="Group_598" data-name="Group 598" transform="translate(0 278)">
      <path id="Path_215" data-name="Path 215" d="M63.768,62.785c-6.255,2.385-7.705,1.741-10.1-4.5,2.4,6.239,1.753,7.686-4.514,10.1,6.267-2.408,7.705-1.757,10.106,4.506C56.858,66.628,57.514,65.17,63.768,62.785Z" transform="translate(75.007 61.155)" fill="#da9089"/>
      <path id="Path_217" data-name="Path 217" d="M78.621,48.062c-9.606,3.677-11.815,2.709-15.481-6.909,3.665,9.617,2.679,11.815-6.909,15.492,9.588-3.677,11.8-2.691,15.481,6.891C68.03,53.954,69.016,51.739,78.621,48.062Z" transform="translate(21.379 83.075)" fill="#da9089"/>
      <path id="Path_219" data-name="Path 219" d="M71.089,45.737c-6.374,2.44-7.84,1.8-10.272-4.584,2.432,6.382,1.778,7.84-4.584,10.28,6.362-2.44,7.832-1.786,10.272,4.573C64.06,49.648,64.715,48.177,71.089,45.737Z" transform="translate(60.379 104.075)" fill="#da9089"/>
      <path id="Path_216" data-name="Path 216" d="M52.65,48.808c-6.263,2.385-7.7,1.753-10.1-4.506,2.4,6.259,1.757,7.7-4.518,10.1,6.278-2.4,7.705-1.757,10.117,4.514C45.74,52.647,46.392,51.2,52.65,48.808Z" transform="translate(192 89.909)" fill="#da9089"/>
      <path id="Path_220" data-name="Path 220" d="M67.427,53.363c-12.593,4.8-15.486,3.524-20.312-9.061,4.827,12.585,3.532,15.478-9.084,20.3,12.624-4.827,15.493-3.532,20.343,9.076C53.532,61.082,54.842,58.166,67.427,53.363Z" transform="translate(215 65.14)" fill="#da9089"/>
      <path id="Path_222" data-name="Path 222" d="M55.04,49.545c-7.286,2.775-8.96,2.039-11.753-5.243,2.793,7.282,2.044,8.956-5.256,11.748C45.335,53.258,47,54.007,49.8,61.3,47,54.011,47.758,52.324,55.04,49.545Z" transform="translate(248 94.521)" fill="#da9089"/>
      <path id="Path_221" data-name="Path 221" d="M58.682,50.667C49.835,54.036,47.8,53.143,44.413,44.3c3.391,8.841,2.481,10.873-6.382,14.264,8.868-3.391,10.884-2.481,14.291,6.376C48.921,56.09,49.841,54.041,58.682,50.667Z" transform="translate(219 103.14)" fill="#da9089"/>
    </g>
    <g id="noun_tick_3325465" transform="translate(154 382)">
      <g id="Group_990" data-name="Group 990" transform="translate(5 6)">
        <path id="Path_594" data-name="Path 594" d="M34.8,6a28.8,28.8,0,1,0,28.8,28.8A28.8,28.8,0,0,0,34.8,6Zm0,53.161A24.365,24.365,0,1,1,59.161,34.8,24.365,24.365,0,0,1,34.8,59.161Zm14.4-33.846a2.215,2.215,0,0,1,.089,3.123L34.8,43.744a5.538,5.538,0,0,1-4.02,1.728h-.188a5.538,5.538,0,0,1-4.065-1.927l-6.246-7.265A2.215,2.215,0,1,1,23.6,33.389l6.246,7.265a1.115,1.115,0,0,0,1.65.044L46,25.393a2.215,2.215,0,0,1,3.19-.078Z" transform="translate(-6 -6)" fill="#c7222a"/>
      </g>
    </g>
  </g>
</svg>
