<svg xmlns="http://www.w3.org/2000/svg" width="53.077" height="55.547" viewBox="0 0 53.077 55.547">
  <g id="Group_4701" data-name="Group 4701" transform="translate(-153.943 -602.94)">
    <g id="tax" transform="translate(141.855 603.588)">
      <path id="Path_12852" data-name="Path 12852" d="M139.741.076H113.662a17.57,17.57,0,0,1,6.8,9.753H133.1a1.608,1.608,0,1,1,0,3.216H121.009q.049.653.049,1.318a17.438,17.438,0,0,1-4.361,11.55h16.4a1.608,1.608,0,1,1,0,3.216h-20.15A17.5,17.5,0,0,1,98.4,31.1V53.359a1.608,1.608,0,0,0,1.608,1.608h39.733a1.608,1.608,0,0,0,1.608-1.608V1.684A1.608,1.608,0,0,0,139.741.076Zm-22.409,43.53A1.608,1.608,0,0,1,118.94,42H133.1a1.608,1.608,0,1,1,0,3.216H118.94A1.608,1.608,0,0,1,117.332,43.606Zm-10.682-9.65H133.1a1.608,1.608,0,1,1,0,3.216H106.65a1.608,1.608,0,1,1,0-3.216Zm0,8.042q2.949-.007,5.926-.01h0a1.608,1.608,0,0,1,1.608,1.608v.01a1.608,1.608,0,0,1-1.608,1.608H106.65a1.608,1.608,0,0,1,0-3.216Z" transform="translate(-76.185 -0.068)" fill="#eecac7"/>
    </g>
    <g id="Group_4499" data-name="Group 4499" transform="translate(23.943 18.943)">
      <path id="Path_12855" data-name="Path 12855" d="M130.84,271.242l12.906-12.906,1.521,1.521-12.905,12.906Zm0,0" transform="translate(7.003 333.504)" fill="#c7222a"/>
      <path id="Path_12856" data-name="Path 12856" d="M195.726,320a3.226,3.226,0,1,0,3.226,3.226A3.226,3.226,0,0,0,195.726,320Zm0,4.3a1.075,1.075,0,1,1,1.075-1.075A1.075,1.075,0,0,1,195.726,324.3Zm0,0" transform="translate(-46.368 280.133)" fill="#c7222a"/>
      <path id="Path_12857" data-name="Path 12857" d="M131.726,262.449a3.226,3.226,0,1,0-3.226-3.226A3.227,3.227,0,0,0,131.726,262.449Zm0-4.3a1.075,1.075,0,1,1-1.075,1.075A1.075,1.075,0,0,1,131.726,258.147Zm0,0" transform="translate(9.028 335.529)" fill="#c7222a"/>
      <path id="Path_12858" data-name="Path 12858" d="M87.556,200a15.056,15.056,0,1,0,15.056,15.056A15.056,15.056,0,0,0,87.556,200Zm0,27.962a12.905,12.905,0,1,1,12.905-12.905A12.905,12.905,0,0,1,87.556,227.958Zm0,0" transform="translate(57.5 384.001)" fill="#c7222a"/>
    </g>
  </g>
</svg>
