<svg xmlns="http://www.w3.org/2000/svg" width="13.642" height="17.143" viewBox="0 0 13.642 17.143">
  <g id="Group_4792" data-name="Group 4792" transform="translate(-12.2 -2.5)" fill="#fff">
    <path id="Path_12844" data-name="Path 12844" d="M24.723,2.5h-11.4A1.124,1.124,0,0,0,12.2,3.619v14.9a1.124,1.124,0,0,0,1.119,1.119h11.4a1.124,1.124,0,0,0,1.119-1.119V3.619A1.124,1.124,0,0,0,24.723,2.5Zm.2,16.024a.2.2,0,0,1-.2.2h-11.4a.2.2,0,0,1-.2-.2V3.619a.2.2,0,0,1,.2-.2h11.4a.2.2,0,0,1,.2.2Z" transform="translate(0)"/>
    <path id="Path_12845" data-name="Path 12845" d="M35.936,62H29.151a.451.451,0,1,0,0,.9h6.8a.447.447,0,0,0,.451-.451A.462.462,0,0,0,35.936,62Z" transform="translate(-13.523 -48.763)"/>
    <path id="Path_12846" data-name="Path 12846" d="M35.936,77.2H29.151a.451.451,0,1,0,0,.9h6.8a.447.447,0,0,0,.451-.451A.462.462,0,0,0,35.936,77.2Z" transform="translate(-13.523 -61.221)"/>
    <path id="Path_12847" data-name="Path 12847" d="M35.936,46.8H29.151a.451.451,0,1,0,0,.9h6.8a.447.447,0,0,0,.451-.451A.462.462,0,0,0,35.936,46.8Z" transform="translate(-13.523 -36.306)"/>
    <path id="Path_12848" data-name="Path 12848" d="M40.224,21.014a.452.452,0,0,0,.325.144.423.423,0,0,0,.325-.144l2.761-2.761a.472.472,0,0,0-.668-.668l-2.743,2.761A.449.449,0,0,0,40.224,21.014Z" transform="translate(-22.845 -12.252)"/>
    <circle id="Ellipse_274" data-name="Ellipse 274" cx="0.74" cy="0.74" r="0.74" transform="translate(17.054 5.026)"/>
    <circle id="Ellipse_275" data-name="Ellipse 275" cx="0.74" cy="0.74" r="0.74" transform="translate(19.616 7.589)"/>
  </g>
</svg>
