<svg xmlns="http://www.w3.org/2000/svg" width="50" height="50.197" viewBox="0 0 50 50.197"><defs><style>.a{fill:none;}.b,.c{fill:#f7a501;}.b{stroke:#f7a501;stroke-width:0.5px;}</style></defs><g transform="translate(-139.52 -603.846)"><rect class="a" width="50" height="50" transform="translate(139.52 604)"/><g transform="translate(-0.5)"><path class="b" d="M47.464,16.07a.562.562,0,0,0-.145-.279L35.2,3.67a.562.562,0,0,0-.279-.145.154.154,0,0,0-.073-.012c-.024,0-.048-.012-.085-.012H8.106a.6.6,0,0,0-.606.606V52.591a.6.6,0,0,0,.606.606H46.894a.6.6,0,0,0,.606-.606V16.227c0-.024-.012-.048-.012-.073A.772.772,0,0,0,47.464,16.07ZM35.379,5.573,45.427,15.621H35.379ZM46.288,51.985H8.712V4.712H34.167V16.227a.6.6,0,0,0,.606.606H46.288Z" transform="translate(137.52 600.596)"/><path class="b" d="M26.308,25a8.477,8.477,0,0,0-7.879,11.624L13.3,41.752a.6.6,0,0,0,0,.861l3.43,3.43a.609.609,0,0,0,.424.182.588.588,0,0,0,.424-.182l4.958-4.958a8.621,8.621,0,0,0,3.77.885,8.529,8.529,0,0,0,3.758-.885l4.958,4.958a.609.609,0,0,0,.424.182.588.588,0,0,0,.424-.182l3.43-3.43a.6.6,0,0,0,0-.861l-5.127-5.127A8.477,8.477,0,0,0,26.308,25ZM17.168,44.745l-2.57-2.57,4.4-4.4a8.562,8.562,0,0,0,2.473,2.679Zm9.139-3.988a7.273,7.273,0,1,1,7.273-7.273A7.278,7.278,0,0,1,26.308,40.758Zm11.709,1.418-2.57,2.57-4.3-4.3a8.432,8.432,0,0,0,2.473-2.679Z" transform="translate(138.718 595.125)"/><path class="c" d="M130.84,266l7.664-7.663.9.9-7.663,7.664Zm0,0" transform="translate(29.901 366.056)"/><path class="c" d="M194.416,320a1.916,1.916,0,1,0,1.916,1.916A1.916,1.916,0,0,0,194.416,320Zm0,2.554a.639.639,0,1,1,.639-.639A.638.638,0,0,1,194.416,322.55Zm0,0" transform="translate(-26.836 309.317)"/><path class="c" d="M130.416,259.828a1.916,1.916,0,1,0-1.916-1.916A1.916,1.916,0,0,0,130.416,259.828Zm0-2.554a.639.639,0,1,1-.639.639A.639.639,0,0,1,130.416,257.273Zm0,0" transform="translate(32.055 368.209)"/></g></g></svg>