<svg xmlns="http://www.w3.org/2000/svg" width="17.636" height="17.681" viewBox="0 0 17.636 17.681">
  <g id="Group_4796" data-name="Group 4796" transform="translate(-21.601 -21.401)">
    <path id="Path_12849" data-name="Path 12849" d="M38.017,22.879a8.832,8.832,0,0,0-10.991.97V21.431H25.5v4.885h4.579V24.79H27.853a7.567,7.567,0,0,1,12.441,7.852l1.185.4A8.825,8.825,0,0,0,38.017,22.879Z" transform="translate(-2.709 0)"/>
    <path id="Path_12850" data-name="Path 12850" d="M44.98,40.733l-4,4-1.3-1.3-.885.885L41.176,46.7l4.883-4.884Z" transform="translate(-11.949 -13.43)"/>
    <path id="Path_12851" data-name="Path 12851" d="M37.751,49.073v-.851H33.171v1.526h2.375a7.563,7.563,0,0,1-10.469-.205,7.6,7.6,0,0,1-1.872-7.654l-1.192-.381a8.862,8.862,0,0,0,2.182,8.922,8.816,8.816,0,0,0,12.335.111v2.51h1.221s0-3.973,0-3.975Z" transform="translate(0 -13.968)"/>
  </g>
</svg>
