<svg id="Group_4854" data-name="Group 4854" xmlns="http://www.w3.org/2000/svg" width="13.566" height="17.626" viewBox="0 0 13.566 17.626">
  <path id="Path_12952" data-name="Path 12952" d="M34.951,14.8H21.815a.214.214,0,0,1-.215-.215V13.315a.214.214,0,0,1,.215-.215H34.951a.214.214,0,0,1,.215.215v1.242A.221.221,0,0,1,34.951,14.8Z" transform="translate(-21.6 -13.1)"/>
  <path id="Path_12953" data-name="Path 12953" d="M32.1,28.242l-5.732,5.732a.2.2,0,0,1-.31,0l-.884-.884a.2.2,0,0,1,0-.31l5.708-5.708a.2.2,0,0,1,.31,0l.884.884A.2.2,0,0,1,32.1,28.242Z" transform="translate(-24.264 -23.68)"/>
  <path id="Path_12954" data-name="Path 12954" d="M45.429,28.166l5.708,5.708a.2.2,0,0,0,.31,0l.884-.884a.2.2,0,0,0,0-.31l-5.708-5.708a.2.2,0,0,0-.31,0l-.884.884A.251.251,0,0,0,45.429,28.166Z" transform="translate(-39.697 -23.604)"/>
  <path id="Path_12955" data-name="Path 12955" d="M48.172,35.315V47.257a.214.214,0,0,1-.215.215H46.715a.214.214,0,0,1-.215-.215V35.315a.214.214,0,0,1,.215-.215h1.242A.214.214,0,0,1,48.172,35.315Z" transform="translate(-40.553 -29.846)"/>
</svg>
