<svg xmlns="http://www.w3.org/2000/svg" width="20.395" height="19.976" viewBox="0 0 20.395 19.976"><defs><style>.a{fill:#fff;stroke:#fff;stroke-width:0.3px;}</style></defs><g transform="translate(0.15 -4.773)"><g transform="translate(1.675 14.971)"><path class="a" d="M42.316,241.231a2.931,2.931,0,1,0,2.931,2.931A2.912,2.912,0,0,0,42.316,241.231Zm0,5.024a2.093,2.093,0,1,1,2.093-2.093A2.073,2.073,0,0,1,42.316,246.255Z" transform="translate(-39.385 -241.231)"/></g><g transform="translate(0 19.994)"><path class="a" d="M4.605,359.385A4.592,4.592,0,0,0,0,363.99H.837a3.768,3.768,0,1,1,7.536,0H9.21A4.592,4.592,0,0,0,4.605,359.385Z" transform="translate(0 -359.385)"/></g><g transform="translate(12.559 14.971)"><path class="a" d="M298.316,241.231a2.931,2.931,0,1,0,2.931,2.931A2.912,2.912,0,0,0,298.316,241.231Zm0,5.024a2.093,2.093,0,1,1,2.093-2.093A2.073,2.073,0,0,1,298.316,246.255Z" transform="translate(-295.385 -241.231)"/></g><g transform="translate(10.885 19.994)"><path class="a" d="M260.605,359.385A4.592,4.592,0,0,0,256,363.99h.837a3.768,3.768,0,1,1,7.536,0h.837A4.592,4.592,0,0,0,260.605,359.385Z" transform="translate(-256 -359.385)"/></g><g transform="translate(7.117 4.923)"><g transform="translate(0 0)"><path class="a" d="M170.316,4.923a2.931,2.931,0,1,0,2.931,2.931A2.912,2.912,0,0,0,170.316,4.923Zm0,5.024a2.093,2.093,0,1,1,2.093-2.093A2.073,2.073,0,0,1,170.316,9.947Z" transform="translate(-167.385 -4.923)"/></g></g><g transform="translate(5.442 9.947)"><path class="a" d="M132.605,123.077A4.592,4.592,0,0,0,128,127.682h.837a3.768,3.768,0,1,1,7.536,0h.837A4.592,4.592,0,0,0,132.605,123.077Z" transform="translate(-128 -123.077)"/></g></g></svg>