<svg xmlns="http://www.w3.org/2000/svg" width="20.539" height="20.539" viewBox="0 0 20.539 20.539">
  <g id="noun_User_895491" transform="translate(-5 -5)">
    <g id="Group_2337" data-name="Group 2337" transform="translate(5 5)">
      <path id="Path_725" data-name="Path 725" d="M23.026,5H7.513A2.515,2.515,0,0,0,5,7.512V23.026a2.516,2.516,0,0,0,2.513,2.513H23.026a2.516,2.516,0,0,0,2.513-2.513V7.512A2.515,2.515,0,0,0,23.026,5ZM24.2,22.37a2.017,2.017,0,0,0-.243-.236,11.973,11.973,0,0,0-2.535-1.646c-.7-.349-1.22-.549-1.23-.553-1.195-.42-1.621-.85-1.769-1.135l-.06-.172c-.017-.061-.032-.117-.046-.173l-.145-.816,0-.039a6.145,6.145,0,0,0,.932-1.678l.03-.046a3.069,3.069,0,0,0,.526-1.21c.25-.7.157-1.006.079-1.129l-.032-.051.018-.056a4.381,4.381,0,0,0-.2-3.242l-.014-.036a2.846,2.846,0,0,0-1.79-1.838,4.926,4.926,0,0,0-2.342-.507H15.23a4.926,4.926,0,0,0-2.342.507,2.848,2.848,0,0,0-1.79,1.838l-.014.036a4.383,4.383,0,0,0-.2,3.242l.018.056-.032.051c-.077.122-.171.428.079,1.129a3.073,3.073,0,0,0,.526,1.21l.03.046a6.134,6.134,0,0,0,.932,1.678l0,.039-.145.816c-.014.055-.029.112-.046.173l-.06.172c-.147.285-.574.714-1.769,1.135-.01,0-.529.2-1.229.553A11.981,11.981,0,0,0,6.65,22.134a2.234,2.234,0,0,0-.311.314V7.512A1.173,1.173,0,0,1,7.513,6.339H23.026A1.173,1.173,0,0,1,24.2,7.512Z" transform="translate(-5 -5)" fill="#6c7174"/>
    </g>
  </g>
</svg>
