<svg xmlns="http://www.w3.org/2000/svg" width="26.696" height="27.031" viewBox="0 0 26.696 27.031">
  <g id="Group_1" data-name="Group 1" transform="translate(-53.007 -50.459)">
    <g id="Group_3" data-name="Group 3" transform="translate(53.007 50.459)">
      <g id="Group_1-2" data-name="Group 1" transform="translate(5.767 5.305)">
        <path id="Path_1" data-name="Path 1" d="M152.518,146.852h0c-2.521,0-5.411-1.408-7.931-3.86l-.013-.013c-2.451-2.519-3.858-5.41-3.86-7.931a3.968,3.968,0,0,1,1.339-2.749,3.749,3.749,0,0,1,2.091-1.168c.956,0,1.21.452,1.595,1.136.094.167.2.356.338.584.076.126.181.286.292.455.706,1.075,1.15,1.827.908,2.456a3.569,3.569,0,0,1-1.18,1.279,6.251,6.251,0,0,0-.553.474,9.269,9.269,0,0,0,4.5,4.505,6.278,6.278,0,0,0,.471-.55,3.563,3.563,0,0,1,1.284-1.183,1.021,1.021,0,0,1,.369-.066,4.523,4.523,0,0,1,2.087.974c.169.111.329.216.456.293.228.137.417.243.583.337.684.385,1.136.639,1.136,1.595a3.748,3.748,0,0,1-1.168,2.09A3.973,3.973,0,0,1,152.518,146.852Zm-7.008-4.8c2.241,2.178,4.86,3.479,7.007,3.481,1.3,0,2.533-1.686,2.6-2.126a1.042,1.042,0,0,0-.01-.16,4.191,4.191,0,0,0-.456-.277c-.166-.093-.372-.21-.617-.357-.149-.09-.319-.2-.5-.319a7.3,7.3,0,0,0-1.317-.748,5.05,5.05,0,0,0-.673.744c-.451.565-.841,1.053-1.39,1.055-1.339,0-3.163-1.722-3.69-2.249s-2.248-2.351-2.249-3.687c0-.553.49-.944,1.058-1.4a5.078,5.078,0,0,0,.741-.67,7.3,7.3,0,0,0-.748-1.317c-.118-.18-.229-.35-.319-.5-.148-.246-.264-.452-.357-.618a4.2,4.2,0,0,0-.277-.456,1.042,1.042,0,0,0-.16-.01c-.441.068-2.126,1.3-2.126,2.6C142.031,137.195,143.332,139.814,145.51,142.056Z" transform="translate(-140.714 -131.132)"/>
      </g>
      <g id="Group_2" data-name="Group 2" transform="translate(0 0)">
        <path id="Path_2" data-name="Path 2" d="M53.664,77.49a.658.658,0,0,1-.617-.886l2.169-5.862a13.579,13.579,0,0,1-2.1-8.364A12.915,12.915,0,0,1,66.063,50.459a13.543,13.543,0,0,1,9.629,4.017,13.334,13.334,0,0,1,.233,18.831,12.915,12.915,0,0,1-9.2,3.784h0a13.508,13.508,0,0,1-7.154-2.05l-5.648,2.4A.658.658,0,0,1,53.664,77.49Zm5.967-3.846a.658.658,0,0,1,.362.108,12.2,12.2,0,0,0,6.73,2.025,11.608,11.608,0,0,0,8.271-3.4,12.017,12.017,0,0,0-.233-16.971,12.237,12.237,0,0,0-8.7-3.632,11.609,11.609,0,0,0-8.272,3.4,11.946,11.946,0,0,0-1.3,15.117.657.657,0,0,1,.072.6l-1.756,4.746L59.375,73.7A.656.656,0,0,1,59.632,73.644Z" transform="translate(-53.007 -50.459)"/>
      </g>
    </g>
  </g>
</svg>
