<svg xmlns="http://www.w3.org/2000/svg" width="27.394" height="27.526" viewBox="0 0 27.394 27.526">
  <path id="whatsapp" d="M23.653,4A13.643,13.643,0,0,0,2.185,20.458L.25,27.526l7.231-1.9A13.625,13.625,0,0,0,14,27.289H14A13.646,13.646,0,0,0,23.653,4ZM14,24.986h0a11.323,11.323,0,0,1-5.77-1.58l-.414-.246L3.525,24.285,4.67,20.1l-.27-.429A11.337,11.337,0,1,1,14,24.986ZM20.223,16.5c-.341-.171-2.016-.995-2.329-1.109s-.54-.17-.767.171-.88,1.109-1.079,1.336-.4.256-.738.085a9.309,9.309,0,0,1-2.741-1.692,10.28,10.28,0,0,1-1.9-2.361c-.2-.341,0-.508.15-.7a9.641,9.641,0,0,0,.852-1.166.627.627,0,0,0-.029-.6c-.085-.171-.767-1.848-1.051-2.531-.277-.664-.558-.575-.767-.585S9.4,7.34,9.175,7.34a1.252,1.252,0,0,0-.909.427A3.822,3.822,0,0,0,7.074,10.61a6.63,6.63,0,0,0,1.392,3.526,15.192,15.192,0,0,0,5.822,5.146A19.508,19.508,0,0,0,16.23,20a4.672,4.672,0,0,0,2.147.135,3.511,3.511,0,0,0,2.3-1.621,2.848,2.848,0,0,0,.2-1.621c-.085-.142-.312-.227-.653-.4Zm0,0" transform="translate(-0.25)" fill-rule="evenodd"/>
</svg>
