<svg xmlns="http://www.w3.org/2000/svg" width="48.479" height="48.469" viewBox="0 0 48.479 48.469"><defs><style>.a{fill:#c7222a;}</style></defs><g transform="translate(0 -0.041)"><g transform="translate(0 0.041)"><g transform="translate(0 0)"><path class="a" d="M43.016,5.494A18.557,18.557,0,0,0,16.1,31.029l-1.417,1.417a2.932,2.932,0,0,0-4.147,0h0L.859,42.122a2.932,2.932,0,0,0,0,4.147h0l1.382,1.382a2.932,2.932,0,0,0,4.146,0l9.676-9.676a2.932,2.932,0,0,0,0-4.147h0l1.417-1.417A18.557,18.557,0,0,0,43.016,5.494Zm-28.334,31.1L5.006,46.268a.977.977,0,0,1-1.382,0L2.242,44.885a.977.977,0,0,1,0-1.381l9.676-9.676a1,1,0,0,1,1.382,0l1.382,1.383A.977.977,0,0,1,14.682,36.592Zm26.953-6.219a16.615,16.615,0,1,1,0-23.5A16.615,16.615,0,0,1,41.635,30.373Z" transform="translate(0 -0.041)"/></g></g><g transform="translate(38.87 8.258)"><path class="a" d="M319.549,67.3h0l-1.382,1.382a12.721,12.721,0,0,1,0,17.969l1.382,1.382A14.675,14.675,0,0,0,319.549,67.3Z" transform="translate(-318.167 -67.303)"/></g></g></svg>