<!-- Generated by IcoMoon.io -->
<svg version="1.1" xmlns="http://www.w3.org/2000/svg" width="1024" height="1024" viewBox="0 0 1024 1024">
<title></title>
<g id="icomoon-ignore">
</g>
<path fill="#fff" d="M333.972 59.242c61.194-26.803 132.511-42.401 207.472-42.401 27.97 0 55.432 2.171 82.229 6.356l-2.976-0.383c100.989 16.12 189.858 59.206 261.502 121.571l-0.629-0.536c73.258 101.597 118.808 227.493 123.357 363.777l0.029 1.092c0.002 0.457 0.003 0.998 0.003 1.539 0 174.967-95.599 327.606-237.413 408.532l-2.31 1.214c-73.723 43.747-162.518 69.601-257.351 69.601-81.704 0-158.925-19.191-227.402-53.311l2.962 1.336-257.934 64.043 64.043-257.934c-31.461-68.785-52.467-148.697-58.621-232.733l-0.134-2.287c0.114-100.28 31.072-193.307 83.896-270.129l-1.051 1.618c54.602-79.606 129.385-141.735 217.064-179.706l3.267-1.26z"></path>
<path fill="#f1f3f6" d="M2.594 1024.001l69.919-277.324c-31.343-68.787-52.337-148.68-58.614-232.674l-0.141-2.346c-0.001-0.303-0.001-0.663-0.001-1.022 0-104.52 32.298-201.497 87.458-281.494l-1.087 1.667c56.28-82.243 133.475-146.406 224.016-185.545l3.366-1.295c62.835-27.789 136.116-43.966 213.175-43.966 134.893 0 258.208 49.573 352.721 131.494l-0.672-0.57 2.937 3.525c74.894 104.27 121.346 233.441 125.709 373.219l0.026 1.051c-0.032 181.438-98.55 339.859-245.003 424.715l-2.355 1.259c-76.215 45.096-167.969 71.743-265.946 71.743-82.953 0-161.445-19.101-231.317-53.144l3.133 1.378zM342.198 74.519c-88.185 38.188-160.614 98.719-212.193 174.57l-1.088 1.695c-49.293 72.448-79.184 161.573-80.491 257.603l-0.004 0.332c6.71 84.106 27.674 161.747 60.505 232.779l-1.75-4.221v6.463l-58.755 235.020 235.020-58.755h5.288c64.086 32.432 139.711 51.428 219.773 51.428 92.247 0 178.604-25.217 252.553-69.136l-2.285 1.256c137.941-79.894 229.339-226.646 229.733-394.778v-0.056c-4.119-132.523-47.513-254.15-118.856-354.524l1.345 1.993c-87.897-76.174-203.388-122.59-329.721-122.59-71.949 0-140.383 15.055-202.321 42.187l3.245-1.267z"></path>
<path fill="#01e074" d="M870.993 479.341c-0.525 210.85-171.572 381.573-382.495 381.573-71.732 0-138.852-19.746-196.221-54.098l1.74 0.966-10.576-5.288-144.537 37.604 38.779-141.012-11.751-14.101c-36.859-57.699-58.749-128.055-58.749-203.524 0-210.922 170.986-381.908 381.908-381.908 210.177 0 380.7 169.781 381.902 379.674l0.001 0.115z"></path>
<path fill="#fff" d="M729.982 607.427v2.937c-85.194-45.829-94.008-51.704-105.171-34.078s-29.378 40.541-36.429 48.767-13.513 8.813-24.677 0c-36.33-13.924-67.539-33.425-94.238-57.787l0.23 0.207c-24.686-25.479-45.983-54.458-63.026-86.069l-1.017-2.063c-11.163-21.739 12.338-24.677 34.078-68.744 1.561-3.272 2.472-7.112 2.472-11.163s-0.911-7.892-2.541-11.324l0.068 0.16c0-5.876-25.853-67.569-35.841-92.245s-19.977-22.327-27.028-22.327c-4.325-1.245-9.293-1.961-14.428-1.961-15.040 0-28.647 6.144-38.446 16.058l-0.005 0.005c-62.28 74.619-47.004 151.001 6.463 235.020 105.171 149.238 160.989 176.265 263.81 214.456 13.896 4.87 29.917 7.684 46.596 7.684 9.284 0 18.365-0.872 27.165-2.538l-0.904 0.142c33.744-7.782 61.388-29.27 77.25-58.146l0.307-0.609c5.285-12.382 8.357-26.789 8.357-41.912 0-5.946-0.475-11.78-1.388-17.469l0.083 0.625c-2.937-5.876-10.576-8.813-21.739-14.688z"></path>
</svg>
