<!-- Generated by IcoMoon.io -->
<svg version="1.1" xmlns="http://www.w3.org/2000/svg" width="1024" height="1024" viewBox="0 0 1024 1024">
<title></title>
<g id="icomoon-ignore">
</g>
<path d="M512 0c-149.661 0-275.692 118.153-275.692 275.692 0 149.661 126.031 267.815 275.692 267.815s275.692-118.153 275.692-275.692c0-157.539-126.031-267.815-275.692-267.815zM512 480.493c-118.153 0-212.677-94.523-212.677-204.799 0-118.153 94.523-212.677 212.677-212.677s212.677 94.523 212.677 212.677c0 118.153-94.523 204.799-212.677 204.799z"></path>
<path d="M512 614.4c-244.185 0-441.107 165.415-441.107 378.092 0 15.754 15.754 31.508 31.508 31.508s31.508-15.754 31.508-31.508c0-173.292 173.292-315.076 378.092-315.076s378.092 141.784 378.092 315.076c0 15.754 15.754 31.508 31.508 31.508s31.508-15.754 31.508-31.508c0-212.677-196.923-378.092-441.107-378.092z"></path>
</svg>
