<svg id="Layer_1" data-name="Layer 1" xmlns="http://www.w3.org/2000/svg" viewBox="0 0 40 40"><defs><style>.cls-1{fill:#3c5b3a;}</style></defs><title>advisor-details-content</title><path class="cls-1" d="M20,40A20,20,0,1,1,40,20,20,20,0,0,1,20,40ZM20,2A18,18,0,1,0,38,20,18,18,0,0,0,20,2Z"/><path class="cls-1" d="M20.2,21.06a6.91,6.91,0,1,0-6.91-6.9A6.91,6.91,0,0,0,20.2,21.06Zm0-12.21a5.31,5.31,0,1,1-5.31,5.31A5.31,5.31,0,0,1,20.2,8.85Zm0,13.87C14,22.72,9,27,9,32.35a.8.8,0,0,0,1.6,0c0-4.43,4.31-8,9.6-8s9.6,3.6,9.6,8a.8.8,0,0,0,1.6,0C31.4,27,26.38,22.72,20.2,22.72Z"/></svg>