<!-- Generated by IcoMoon.io -->
<svg version="1.1" xmlns="http://www.w3.org/2000/svg" width="1024" height="1024" viewBox="0 0 1024 1024">
<title></title>
<g id="icomoon-ignore">
</g>
<path d="M748.579 0.001h-261.297c-7.062 0-14.124 0-14.124 7.062l-360.165 360.165c-7.062 7.062-7.062 7.062-7.062 14.124v466.096c0 98.869 77.682 176.552 176.552 176.552h459.034c98.869 0 176.552-77.682 176.552-176.552v-670.896c0-49.435-21.186-91.807-49.435-127.117s-77.682-49.435-120.055-49.435v0zM466.097 84.746v141.241c0 35.31-14.124 63.559-35.31 91.807s-63.559 42.372-91.807 42.372h-141.241l268.358-275.421zM875.696 847.449c0 35.31-14.124 63.559-35.31 91.807-21.186 21.186-56.496 35.31-91.807 35.31h-466.096c-70.621 0-127.117-56.496-127.117-127.117v-437.848h183.613c98.869 0 176.552-77.682 176.552-176.552v-183.613h233.048c35.31 0 63.559 14.124 91.807 35.31s35.31 56.496 35.31 91.807v670.896z"></path>
</svg>
