<!-- Generated by IcoMoon.io -->
<svg version="1.1" xmlns="http://www.w3.org/2000/svg" width="1024" height="1024" viewBox="0 0 1024 1024">
<title></title>
<g id="icomoon-ignore">
</g>
<path d="M60.594 750.361l53.285-28.089c77.658 147.318 230.438 241.494 399.944 241.494 170.647 0 324.017-95.478 401.024-243.561l7.444-14.982 54.427 25.805c-84.122 177.424-263.070 292.972-462.896 292.972-192.082 0-365.251-106.743-453.23-273.639zM65.836 263.984c89.582-161.562 259.824-263.984 447.987-263.984 186.020 0 354.319 100.062 444.614 257.936l8.493 15.457-53.281 28.098c-77.622-147.193-230.368-241.257-399.826-241.257-160.324 0-305.863 84.233-386.877 218.394l-8.43 14.564-52.679-29.21z"></path>
<path d="M2.108 149.037h60.236l-0.060 147.697 145.167-0.060v60.236h-205.342z"></path>
<path d="M1021.892 862.224h-60.236v-147.637h-145.106v-60.236h205.342z"></path>
<path d="M689.393 382.088v-45.598h-350.569v45.598h121.374c51.020 0 93.967 29.817 106.014 69.933h-227.389v45.658h227.328c-12.047 40.117-54.995 69.873-106.014 69.873h-121.314v45.658h105.833l110.592 205.161 43.249-22.95-100.532-186.368c59.331-13.252 105.171-57.043 115.35-111.435h75.956v-45.537h-75.896c-4.999-26.623-18.493-50.718-38.009-69.873h113.965l0.060-0.121z"></path>
</svg>
