<!-- Generated by IcoMoon.io -->
<svg version="1.1" xmlns="http://www.w3.org/2000/svg" width="1024" height="1024" viewBox="0 0 1024 1024">
<title></title>
<g id="icomoon-ignore">
</g>
<path d="M1019.698 506.026c-57.367-143.417-172.101-252.415-309.782-309.782-281.098-114.734-596.616 28.684-705.614 309.782-5.737 0-5.737 11.474 0 17.21 80.314 212.258 286.835 344.201 504.829 344.201s430.252-137.681 510.566-344.201c5.737 0 5.737-11.474 0-17.21zM704.18 764.177c-246.678 103.261-533.513-5.737-636.773-252.415v0c45.893-114.734 137.681-200.784 246.678-246.678 246.678-103.261 527.776 5.737 636.773 246.678-45.893 108.998-137.681 200.784-246.678 252.415z"></path>
<path d="M509.132 316.715c-108.998 0-195.047 86.051-195.047 195.047s86.051 195.047 195.047 195.047c108.998 0 195.047-86.051 195.047-195.047s-86.051-195.047-195.047-195.047zM509.132 643.706c-74.577 0-131.944-57.367-131.944-131.944s57.367-131.944 131.944-131.944c74.577 0 131.944 63.104 131.944 131.944 0 74.577-57.367 131.944-131.944 131.944z"></path>
</svg>
