<!-- Generated by IcoMoon.io -->
<svg version="1.1" xmlns="http://www.w3.org/2000/svg" width="1024" height="1024" viewBox="0 0 1024 1024">
<title></title>
<g id="icomoon-ignore">
</g>
<path d="M987.645 424.142v0c-6.060 0-54.533-36.355-84.828-48.473l-24.237-54.533c12.118-30.296 30.296-84.828 30.296-90.888 6.060-18.178 0-42.414-18.178-54.533l-48.473-48.473c-12.118-12.118-36.355-18.178-54.533-18.178-6.060 0-60.591 18.178-96.946 24.237l-54.533-24.237c-12.118-30.296-42.414-78.769-48.473-84.828-6.060-12.118-24.237-24.237-48.473-24.237h-60.591c-24.237 0-42.414 12.118-54.533 30.296v0c0 6.060-36.355 54.533-48.473 84.828l-54.533 18.178c-30.296-6.060-84.828-24.237-90.888-24.237-18.178-6.060-42.414 0-54.533 18.178l-48.473 42.414c-18.178 18.178-24.237 36.355-18.178 60.591 0 6.060 18.178 60.591 24.237 96.946l-18.178 48.473c-30.296 18.178-78.769 42.414-84.828 48.473-18.178 12.118-30.296 30.296-30.296 54.533v66.651c0 18.178 12.118 42.414 30.296 48.473 6.060 0 54.533 36.355 84.828 48.473l24.237 54.533c-12.118 30.296-30.296 84.828-30.296 90.888-6.060 18.178 0 42.414 18.178 54.533l48.473 48.473c12.118 18.178 30.296 24.237 54.533 18.178 6.060 0 60.591-18.178 96.946-24.237l54.533 24.237c12.118 30.296 42.414 78.769 48.473 84.828 12.118 18.178 30.296 30.296 48.473 30.296h66.651c18.178 0 42.414-12.118 48.473-30.296v0c0-6.060 36.355-54.533 48.473-84.828l54.533-24.237c30.296 6.060 84.828 24.237 90.888 24.237 18.178 6.060 42.414 0 54.533-18.178l48.473-48.473c12.118-12.118 18.178-36.355 18.178-54.533 0-6.060-18.178-60.591-24.237-96.946l24.237-54.533c30.296-12.118 78.769-42.414 84.828-48.473 18.178-12.118 30.296-30.296 30.296-48.473v-60.591c-6.060-24.237-18.178-42.414-36.355-54.533zM963.408 539.266c0 6.060 0 6.060 0 0-12.118 12.118-72.71 42.414-90.888 54.533l-12.118 6.060-36.355 90.888 6.060 12.118c6.060 24.237 24.237 90.888 30.296 96.946 0 0 0 0 0 6.060l-48.473 48.473c0 0 0 0-6.060 0-18.178-6.060-78.769-18.178-103.006-30.296l-12.118-6.060-90.888 36.355-6.060 12.118c-12.118 24.237-42.414 78.769-48.473 90.888 0 0 0 0-6.060 0h-60.591c0 0 0 0-6.060 0-6.060-12.118-42.414-66.651-48.473-90.888l-6.060-12.118-90.888-36.355-12.118 6.060c-24.237 6.060-84.828 24.237-96.946 30.296 0 0 0 0-6.060 0l-48.473-48.473c0 0 0 0 0-6.060 6.060-12.118 18.178-72.71 30.296-96.946l6.060-12.118-42.414-90.888-12.118-6.060c-18.178-6.060-78.769-42.414-84.828-48.473 0 0 0 0 0-6.060v-60.591c0 0 0 0 0-6.060 12.118-6.060 66.651-42.414 84.828-48.473l12.118-6.060 36.355-90.888v-12.118c-12.118-24.237-24.237-90.888-30.296-96.946 0 0 0 0 0-6.060l48.473-48.473c0 0 0 0 6.060 0 0 0 0 0 0 0v0c0 0 0 0 0 0 12.118 6.060 72.71 18.178 96.946 30.296l12.118 6.060 90.888-36.355 6.060-18.178c12.118-24.237 42.414-78.769 48.473-90.888 0 0 0 0 6.060 0h66.651c0 0 0 0 6.060 0 6.060 12.118 42.414 66.651 48.473 90.888l6.060 12.118 90.888 36.355 12.118-6.060c18.178-6.060 84.828-24.237 90.888-24.237 0 0 0 0 6.060 0l48.473 48.473c0 0 0 0 0 6.060-6.060 12.118-18.178 78.769-30.296 96.946l-6.060 12.118 36.355 90.888 18.178 6.060c24.237 12.118 78.769 42.414 90.888 48.473 0 0 0 0 0 6.060v60.591z"></path>
<path d="M508.97 272.663c-60.591 0-121.184 24.237-169.657 66.651-42.414 48.473-66.651 109.066-66.651 169.657s24.237 121.184 66.651 169.657c42.414 42.414 103.006 66.651 169.657 66.651v0c60.591 0 121.184-24.237 169.657-72.71 42.414-42.414 66.651-103.006 72.71-169.657 0-60.591-24.237-121.184-72.71-169.657-48.473-36.355-109.066-60.591-169.657-60.591zM636.214 636.214c-36.355 36.355-78.769 54.533-127.242 54.533s-96.946-18.178-127.242-54.533c-36.355-30.296-54.533-78.769-54.533-127.242s18.178-96.946 54.533-127.242c36.355-36.355 78.769-54.533 127.242-54.533v0c48.473 0 96.946 18.178 127.242 54.533 36.355 36.355 54.533 78.769 54.533 127.242s-18.178 96.946-54.533 127.242z"></path>
</svg>
