<svg xmlns="http://www.w3.org/2000/svg" width="1024" height="1024" viewBox="0 0 1024 1024">
    <path fill-rule="evenodd" d="M512 0c282.195 0 512 229.805 512 512s-229.805 512-512 512S0 794.195 0 512 229.805 0 512 0zm0 95.256C282.195 95.256 95.256 282.195 95.256 512c0 229.805 186.939 416.744 416.744 416.744 229.805 0 416.744-186.939 416.744-416.744 0-229.805-186.939-416.744-416.744-416.744zm184.557 247.668l57.148 57.156-317.91 317.906-165.5-165.5 57.145-57.156 108.355 108.36 260.762-260.766z"/>
</svg>
