<!-- Generated by IcoMoon.io -->
<svg version="1.1" xmlns="http://www.w3.org/2000/svg" width="1024" height="1024" viewBox="0 0 1024 1024">
<title></title>
<g id="icomoon-ignore">
</g>
<path d="M989.868 238.932h-955.732c-20.48 0-34.133-13.653-34.133-34.133s13.653-34.133 34.133-34.133h955.732c20.48 0 34.133 13.653 34.133 34.133s-13.653 34.133-34.133 34.133z"></path>
<path d="M785.067 443.733h-750.932c-20.48 0-34.133-13.653-34.133-34.133s13.653-34.133 34.133-34.133h750.932c20.48 0 34.133 13.653 34.133 34.133s-13.653 34.133-34.133 34.133z"></path>
<path d="M512 648.533h-477.867c-20.48 0-34.133-13.653-34.133-34.133s13.653-34.133 34.133-34.133h477.867c20.48 0 34.133 13.653 34.133 34.133s-13.653 34.133-34.133 34.133z"></path>
<path d="M921.601 853.333h-887.465c-20.48 0-34.133-13.653-34.133-34.133s13.653-34.133 34.133-34.133h887.465c20.48 0 34.133 13.653 34.133 34.133s-13.653 34.133-34.133 34.133z"></path>
</svg>
