<?xml version="1.0" encoding="UTF-8"?>
<svg width="20px" height="20px" viewBox="0 0 20 20" version="1.1" xmlns="http://www.w3.org/2000/svg" xmlns:xlink="http://www.w3.org/1999/xlink">
    <!-- Generator: sketchtool 50.2 (55047) - http://www.bohemiancoding.com/sketch -->
    <title>3A70CFD2-1CC2-4E70-84E8-7C41794BC1B9</title>
    <desc>Created with sketchtool.</desc>
    <defs></defs>
    <g id="Text-field" stroke="none" stroke-width="1" fill="none" fill-rule="evenodd">
        <g id="Text-Field-XL-1400" transform="translate(-1090.000000, -1797.000000)">
            <g id="Group-2" transform="translate(485.000000, 1096.000000)">
                <g id="Icon/Tooltip/White" transform="translate(605.000000, 701.000000)">
                    <g id="Tooltip">
                        <circle id="Oval-3" stroke="#CDCECE" fill="#FFFFFF" cx="10" cy="10" r="9.5"></circle>
                        <path d="M13,7.74391805 C13,6.37171737 11.9902674,5.595 10.5533403,5.595 C9.59538887,5.595 8.85750736,5.89274166 8.3267505,6.78596663 C8.24907876,6.92836482 8.24907876,7.04487242 8.39147694,7.13548945 L9.07757729,7.562684 C9.19408489,7.62741045 9.3105925,7.62741045 9.37531894,7.53679342 C9.66011531,7.13548945 9.86723994,6.8248025 10.5274497,6.8248025 C11.122933,6.8248025 11.524237,7.22610648 11.4983464,7.79569921 C11.4724558,8.28762021 10.9158084,8.65008832 10.2814892,9.06433758 C9.58244358,9.530368 9.14230373,10.2294136 9.14230373,10.9025687 L9.14230373,11.2391462 C9.14230373,11.4462708 9.20703018,11.498052 9.40120952,11.498052 L10.4368327,11.498052 C10.5274497,11.498052 10.5921762,11.4462708 10.5921762,11.3685991 L10.5921762,11.1226386 C10.5921762,10.5012647 11.0970424,10.1517419 11.6925258,9.7763285 C12.3527355,9.37502453 13,8.62419774 13,7.74391805 Z M10.6957385,12.9867603 C10.6957385,12.5077846 10.3073798,12.1582618 9.84134937,12.1582618 C9.37531894,12.1582618 8.97401497,12.5336752 8.97401497,12.9867603 C8.97401497,13.4398454 9.37531894,13.8152588 9.84134937,13.8152588 C10.3332704,13.8152588 10.7086838,13.4269001 10.7086838,12.9867603 L10.6957385,12.9867603 Z" id="?" fill="#000000"></path>
                    </g>
                </g>
            </g>
        </g>
    </g>
</svg>