<?xml version="1.0" encoding="UTF-8"?>
<svg width="22px" height="18px" viewBox="0 0 22 18" version="1.1" xmlns="http://www.w3.org/2000/svg" xmlns:xlink="http://www.w3.org/1999/xlink">
    <!-- Generator: Sketch 54.1 (76490) - https://sketchapp.com -->
    <title>Icon/32px/Twitter</title>
    <desc>Created with Sketch.</desc>
    <defs>
        <path d="M26.107168,9.03571671 C25.3303814,9.37053854 24.4866304,9.61161026 23.6160936,9.70536037 C24.5134161,9.16964544 25.1964526,8.32589444 25.5178816,7.32142895 C24.6875235,7.81696526 23.7500224,8.17857283 22.7723426,8.36607306 C21.9821631,7.52232205 20.8571618,7 19.6116246,7 C17.2143003,7 15.2857265,8.9419666 15.2857265,11.325898 C15.2857265,11.6607198 15.3259052,11.9955417 15.3928695,12.3169706 C11.8035795,12.1294704 8.60268287,10.4151826 6.47321604,7.79017951 C6.09821559,8.43303742 5.88392963,9.16964544 5.88392963,9.97321783 C5.88392963,11.4732196 6.64732339,12.7991141 7.81250335,13.5759007 C7.10268108,13.549115 6.43303742,13.3482219 5.85714388,13.0267929 L5.85714388,13.0803644 C5.85714388,15.1830455 7.34375279,16.924119 9.32589801,17.3259052 C8.96429044,17.4196553 8.57589712,17.4732268 8.1875038,17.4732268 C7.90625346,17.4732268 7.638396,17.446441 7.37053854,17.4062624 C7.91964634,19.1205502 9.51339824,20.3660874 11.4151862,20.406266 C9.9285773,21.5714459 8.06696794,22.2544825 6.0446441,22.2544825 C5.68303653,22.2544825 5.3482147,22.2410896 5,22.200911 C6.91518085,23.4330553 9.19196928,24.1428776 11.6428651,24.1428776 C19.5982317,24.1428776 23.9509154,17.553584 23.9509154,11.8348272 C23.9509154,11.647327 23.9509154,11.4598267 23.9375226,11.2723265 C24.7812736,10.6562544 25.5178816,9.89286059 26.107168,9.03571671 Z" id="path-1"></path>
    </defs>
    <g id="Symbols" stroke="none" stroke-width="1" fill="none" fill-rule="evenodd">
        <g id="C02-Footer" transform="translate(-1244.000000, -211.000000)">
            <g id="Copyright/Social">
                <g transform="translate(47.000000, 204.000000)">
                    <g id="Social" transform="translate(1152.000000, 0.000000)">
                        <g id="Icon/32px/Twitter" transform="translate(40.000000, 0.000000)">
                            <rect id="Icon-BG" x="0" y="0" width="32" height="32"></rect>
                            <mask id="mask-2" fill="white">
                                <use xlink:href="#path-1"></use>
                            </mask>
                            <use id="" fill="#FFFFFF" fill-rule="evenodd" xlink:href="#path-1"></use>
                            <g id="Fill/Secondary/White" mask="url(#mask-2)" fill="#FFFFFF" fill-rule="evenodd">
                                <rect id="Rectangle-Copy" x="0" y="0" width="32" height="32"></rect>
                            </g>
                        </g>
                    </g>
                </g>
            </g>
        </g>
    </g>
</svg>