<svg xmlns="http://www.w3.org/2000/svg" width="24" height="24" viewBox="0 0 24 24">
    <g fill="none" fill-rule="evenodd">
        <g fill-rule="nonzero">
            <g>
                <path fill="#000" d="M20.43 3.52c4.669 4.674 4.666 12.247-.007 16.916-4.673 4.67-12.247 4.667-16.916-.006-4.667-4.67-4.667-12.239 0-16.91 4.643-4.672 12.195-4.697 16.868-.054l.054.055z" opacity=".249" transform="translate(-391 -225) translate(391 225)"/>
                <path fill="#FFF" d="M17.915 8.108L14.041 11.982 17.915 15.856 15.842 17.929 11.968 14.055 8.094 17.929 6.022 15.856 9.895 11.982 6.022 8.108 8.094 6.035 11.968 9.909 15.842 6.035z" transform="translate(-391 -225) translate(391 225)"/>
            </g>
        </g>
    </g>
</svg>
