<?xml version="1.0" encoding="UTF-8"?>
<svg width="21px" height="21px" viewBox="0 0 21 21" version="1.1" xmlns="http://www.w3.org/2000/svg" xmlns:xlink="http://www.w3.org/1999/xlink">
    <!-- Generator: Sketch 54.1 (76490) - https://sketchapp.com -->
    <title>Icon/32px/WhatsApp</title>
    <desc>Created with Sketch.</desc>
    <defs>
        <path d="M19.19198,17.4107279 C19.4196589,17.4107279 21.6026972,18.5491221 21.6964473,18.7098366 C21.723233,18.7768009 21.723233,18.8571582 21.723233,18.9107297 C21.723233,19.2455515 21.61609,19.620552 21.4955542,19.928588 C21.1875181,20.6785889 19.9419809,21.1607324 19.1785871,21.1607324 C18.5357292,21.1607324 17.2098348,20.5982317 16.6339412,20.3303742 C14.7187604,19.4598375 13.5267947,17.9732286 12.3750076,16.2723337 C11.8660784,15.5223328 11.4107207,14.5982245 11.4241136,13.6741163 L11.4241136,13.5669733 C11.4508994,12.6830437 11.7723283,12.0535786 12.4151862,11.4508994 C12.6160793,11.2633991 12.8303653,11.1562561 13.1116156,11.1562561 C13.2723301,11.1562561 13.4330446,11.1964348 13.6071519,11.1964348 C13.9687595,11.1964348 14.0357239,11.3035778 14.1696526,11.6517925 C14.2634027,11.8794713 14.9464392,13.700902 14.9464392,13.8348308 C14.9464392,14.3437599 14.022331,14.9196535 14.022331,15.2276896 C14.022331,15.2946539 14.0491167,15.3616183 14.0892954,15.4285827 C14.3839386,16.0580477 14.9464392,16.7812629 15.4553684,17.2634063 C16.0714406,17.8526927 16.7276914,18.241086 17.4776923,18.6160865 C17.5714424,18.669658 17.6651925,18.7098366 17.7723355,18.7098366 C18.1741217,18.7098366 18.8437653,17.4107279 19.19198,17.4107279 Z M16.4732268,24.5089506 C21.1071609,24.5089506 24.8839511,20.7321604 24.8839511,16.0982263 C24.8839511,11.4642922 21.1071609,7.68750201 16.4732268,7.68750201 C11.8392927,7.68750201 8.06250246,11.4642922 8.06250246,16.0982263 C8.06250246,17.8660856 8.62500313,19.5937662 9.66964723,21.0268036 L8.61161026,24.1473431 L11.8526855,23.1160918 C13.2187586,24.0134143 14.8392963,24.5089506 16.4732268,24.5089506 Z M16.4732268,6 C22.044662,6 26.5714531,10.5267911 26.5714531,16.0982263 C26.5714531,21.6696615 22.044662,26.1964526 16.4732268,26.1964526 C14.7723319,26.1964526 13.0848299,25.7678807 11.5848281,24.9375226 L6,26.7321676 L7.82143074,21.308054 C6.87053675,19.7410878 6.37500045,17.9330499 6.37500045,16.0982263 C6.37500045,10.5267911 10.9017916,6 16.4732268,6 Z" id="path-1"></path>
    </defs>
    <g id="Symbols" stroke="none" stroke-width="1" fill="none" fill-rule="evenodd">
        <g id="C02-Footer" transform="translate(-1325.000000, -210.000000)">
            <g id="Copyright/Social">
                <g transform="translate(47.000000, 204.000000)">
                    <g id="Social" transform="translate(1152.000000, 0.000000)">
                        <g id="Icon/32px/WhatsApp" transform="translate(120.000000, 0.000000)">
                            <rect id="Icon-BG" x="0" y="0" width="32" height="32"></rect>
                            <mask id="mask-2" fill="white">
                                <use xlink:href="#path-1"></use>
                            </mask>
                            <use id="" fill="#FFFFFF" fill-rule="evenodd" xlink:href="#path-1"></use>
                            <g id="Fill/Secondary/White" mask="url(#mask-2)" fill="#FFFFFF" fill-rule="evenodd">
                                <rect id="Rectangle-Copy" x="0" y="0" width="32" height="32"></rect>
                            </g>
                        </g>
                    </g>
                </g>
            </g>
        </g>
    </g>
</svg>