<?xml version="1.0" encoding="UTF-8"?>
<svg width="20px" height="24px" viewBox="0 0 20 24" version="1.1" xmlns="http://www.w3.org/2000/svg" xmlns:xlink="http://www.w3.org/1999/xlink">
    <!-- Generator: Sketch 54.1 (76490) - https://sketchapp.com -->
    <title>Icon/32px/YouTube</title>
    <desc>Created with Sketch.</desc>
    <defs>
        <path d="M18.6428722,20.6607341 L18.6428722,23.4866304 C18.6428722,24.0893097 18.4687649,24.3839529 18.1205502,24.3839529 C17.9196571,24.3839529 17.718764,24.2902028 17.5178709,24.0893097 L17.5178709,20.0580549 C17.718764,19.8571618 17.9196571,19.7634116 18.1205502,19.7634116 C18.4687649,19.7634116 18.6428722,20.0714477 18.6428722,20.6607341 Z M23.1696633,20.674127 L23.1696633,21.2901992 L21.9643047,21.2901992 L21.9643047,20.674127 C21.9643047,20.0714477 22.1651978,19.7634116 22.566984,19.7634116 C22.9687702,19.7634116 23.1696633,20.0714477 23.1696633,20.674127 Z M10.2321479,17.7544807 L11.6651853,17.7544807 L11.6651853,16.4955506 L7.48660892,16.4955506 L7.48660892,17.7544807 L8.89286059,17.7544807 L8.89286059,25.3750255 L10.2321479,25.3750255 L10.2321479,17.7544807 Z M14.0892954,25.3750255 L15.2812611,25.3750255 L15.2812611,18.7589462 L14.0892954,18.7589462 L14.0892954,23.8214522 C13.8214379,24.1964526 13.5669733,24.3839529 13.3259016,24.3839529 C13.1651871,24.3839529 13.071437,24.2902028 13.0446513,24.1027025 C13.0312584,24.0625239 13.0312584,23.9152023 13.0312584,23.633952 L13.0312584,18.7589462 L11.8392927,18.7589462 L11.8392927,23.9955596 C11.8392927,24.4643101 11.8794713,24.7723462 11.9464357,24.9732393 C12.0535786,25.3080611 12.334829,25.4687756 12.7232223,25.4687756 C13.1517942,25.4687756 13.6071519,25.2009181 14.0892954,24.6518103 L14.0892954,25.3750255 Z M19.8348379,23.3928803 L19.8348379,20.7544843 C19.8348379,20.1384121 19.8080522,19.6964473 19.7143021,19.4285898 C19.5669805,18.9330535 19.2321586,18.6785889 18.7634081,18.6785889 C18.3214433,18.6785889 17.9062642,18.9196606 17.5178709,19.4018041 L17.5178709,16.4955506 L16.3259052,16.4955506 L16.3259052,25.3750255 L17.5178709,25.3750255 L17.5178709,24.7321676 C17.9196571,25.2277039 18.3348361,25.4687756 18.7634081,25.4687756 C19.2321586,25.4687756 19.5669805,25.214311 19.7143021,24.7321676 C19.8080522,24.4509172 19.8348379,24.0089524 19.8348379,23.3928803 Z M24.361629,23.2589515 L24.361629,23.0848442 L23.1428776,23.0848442 C23.1428776,23.5669876 23.1294847,23.8348451 23.1160918,23.9018094 C23.0491275,24.2232384 22.8750201,24.3839529 22.5803769,24.3839529 C22.1651978,24.3839529 21.9643047,24.0759168 21.9643047,23.4598446 L21.9643047,22.2946647 L24.361629,22.2946647 L24.361629,20.9151987 C24.361629,20.2053765 24.2410932,19.6964473 24.0000215,19.3616255 C23.6518068,18.9062678 23.1830562,18.6785889 22.5803769,18.6785889 C21.9643047,18.6785889 21.4955542,18.9062678 21.1473395,19.3616255 C20.8928749,19.6964473 20.772339,20.2053765 20.772339,20.9151987 L20.772339,23.2321658 C20.772339,23.9419881 20.9062678,24.4643101 21.1607324,24.7857391 C21.5089471,25.2410967 21.9776976,25.4687756 22.6071627,25.4687756 C23.2366277,25.4687756 23.732164,25.2277039 24.053593,24.7589533 C24.2009146,24.5446673 24.3080575,24.3035956 24.3348433,24.0357382 C24.361629,23.9152023 24.361629,23.6473449 24.361629,23.2589515 Z M16.2187622,11.0312584 L16.2187622,8.21875503 C16.2187622,7.60268287 16.0446548,7.29464678 15.6428686,7.29464678 C15.2544753,7.29464678 15.0669751,7.60268287 15.0669751,8.21875503 L15.0669751,11.0312584 C15.0669751,11.6473305 15.2544753,11.9687595 15.6428686,11.9687595 C16.0446548,11.9687595 16.2187622,11.6473305 16.2187622,11.0312584 Z M25.8482379,21.0893061 C25.8482379,22.6294865 25.8348451,24.2768099 25.5000232,25.7768117 C25.2455587,26.8348486 24.3884148,27.6116353 23.3571635,27.7187783 C20.8928749,28.0000286 18.4018005,28.0000286 15.924119,28.0000286 C13.4464374,28.0000286 10.9553631,28.0000286 8.4910744,27.7187783 C7.45982317,27.6116353 6.58928642,26.8348486 6.3482147,25.7768117 C6,24.2768099 6,22.6294865 6,21.0893061 C6,19.5357328 6.01339287,17.9018023 6.3482147,16.4018005 C6.60267929,15.3437635 7.45982317,14.5669769 8.50446727,14.446441 C10.9553631,14.1785836 13.4464374,14.1785836 15.924119,14.1785836 C18.4018005,14.1785836 20.8928749,14.1785836 23.3571635,14.446441 C24.3884148,14.5669769 25.2589515,15.3437635 25.5000232,16.4018005 C25.8482379,17.9018023 25.8482379,19.5357328 25.8482379,21.0893061 Z M12.4821506,4 L11.5714352,7.52232563 L10.6205412,4 L9.20089667,4 C9.48214701,4.83035813 9.77679022,5.67410914 10.0714334,6.50446727 C10.5000054,7.75000447 10.7678628,8.68750559 10.8883987,9.34375637 L10.8883987,12.973225 L12.227686,12.973225 L12.227686,9.34375637 L13.8482236,4 L12.4821506,4 Z M17.4375136,8.45982675 L17.4375136,10.8035795 C17.4375136,11.5134018 17.3169778,12.0491167 17.0625132,12.3839386 C16.7276914,12.8392963 16.2589408,13.0669751 15.6428686,13.0669751 C15.0401893,13.0669751 14.5714388,12.8392963 14.236617,12.3839386 C13.9821524,12.0357239 13.8616165,11.5134018 13.8616165,10.8035795 L13.8616165,8.45982675 C13.8616165,7.75000447 13.9821524,7.22768242 14.236617,6.89286059 C14.5714388,6.43750291 15.0401893,6.20982406 15.6428686,6.20982406 C16.2589408,6.20982406 16.7276914,6.43750291 17.0625132,6.89286059 C17.3169778,7.22768242 17.4375136,7.75000447 17.4375136,8.45982675 Z M21.9241261,6.2901813 L20.7053747,6.2901813 L20.7053747,11.392866 C20.4375172,11.7812593 20.1830526,11.9687595 19.9419809,11.9687595 C19.7812664,11.9687595 19.6875163,11.8616165 19.6607306,11.6741163 C19.6473377,11.6473305 19.6473377,11.4866161 19.6473377,11.2053657 L19.6473377,6.2901813 L18.4285862,6.2901813 L18.4285862,11.5669733 C18.4285862,12.0491167 18.4687649,12.3705457 18.5357292,12.5714388 C18.6562651,12.9062606 18.9375154,13.0669751 19.3259087,13.0669751 C19.7678736,13.0669751 20.2232312,12.7991176 20.7053747,12.236617 L20.7053747,12.973225 L21.9241261,12.973225 L21.9241261,6.2901813 Z" id="path-1"></path>
    </defs>
    <g id="Symbols" stroke="none" stroke-width="1" fill="none" fill-rule="evenodd">
        <g id="C02-Footer" transform="translate(-1285.000000, -208.000000)">
            <g id="Copyright/Social">
                <g transform="translate(47.000000, 204.000000)">
                    <g id="Social" transform="translate(1152.000000, 0.000000)">
                        <g id="Icon/32px/YouTube" transform="translate(80.000000, 0.000000)">
                            <rect id="Icon-BG" x="0" y="0" width="32" height="32"></rect>
                            <mask id="mask-2" fill="white">
                                <use xlink:href="#path-1"></use>
                            </mask>
                            <use id="" fill="#000000" fill-rule="evenodd" xlink:href="#path-1"></use>
                            <g id="Fill/Secondary/White" mask="url(#mask-2)" fill="#FFFFFF" fill-rule="evenodd">
                                <rect id="Rectangle-Copy" x="0" y="0" width="32" height="32"></rect>
                            </g>
                        </g>
                    </g>
                </g>
            </g>
        </g>
    </g>
</svg>